<svg xmlns="http://www.w3.org/2000/svg" xmlns:xlink="http://www.w3.org/1999/xlink" viewBox="0 0 240 340" width="240" height="340" xmlns:c2pa="http://c2pa.org/manifest"><metadata><c2pa:manifest>AAAWgmp1bWIAAAAeanVtZGMycGEAEQAQgAAAqgA4m3EDYzJwYQAAABZcanVtYgAAAEdqdW1kYzJtYQARABCAAACqADibcQN1cm46YzJwYTowOGU4NjBjMy0zYzE0LTQyYmYtODU4MS05Zjk4YTA3MDgyOWMAAAADl2p1bWIAAAApanVtZGMyYXMAEQAQgAAAqgA4m3EDYzJwYS5hc3NlcnRpb25zAAAAALxqdW1iAAAARGp1bWRjYm9yABEAEIAAAKoAOJtxE2MycGEuaW5ncmVkaWVudC52MwAAAAAYYzJzaEEuzmsPFnCf0y05mbtDkloAAABwY2JvcqNpZGM6Zm9ybWF0bWltYWdlL3N2Zyt4bWxqaW5zdGFuY2VJRHgseG1wOmlpZDoxZWUwYzAwOS1jNTkwLTQ1OWMtODk0MS00ZjlmODM5ZWZlM2ZscmVsYXRpb25zaGlwaHBhcmVudE9mAAAB4mp1bWIAAABBanVtZGNib3IAEQAQgAAAqgA4m3ETYzJwYS5hY3Rpb25zLnYyAAAAABhjMnNot9ML6h+/8TqeVt4UhgJ59wAAAZljYm9yomdhY3Rpb25zgqJmYWN0aW9ua2MycGEub3BlbmVkanBhcmFtZXRlcnOha2luZ3JlZGllbnRzgaJjdXJseC1zZWxmI2p1bWJmPWMycGEuYXNzZXJ0aW9ucy9jMnBhLmluZ3JlZGllbnQudjNkaGFzaFggTuSIL45FWYwFdC31zu6VSttV/ifBWLEl9sQj+9iZGf+kZmFjdGlvbngdY29tLmFudGhyb3BpYy5jbGF1ZGUucHJvdmlkZWRqcGFyYW1ldGVyc6F4H2NvbS5hbnRocm9waWMub3JpZ2luLWNvbmZpZGVuY2VndW5rbm93bmtkZXNjcmlwdGlvbnhmQ2xhdWRlIHByb3ZpZGVkIHRoaXMgZmlsZSBhdCB0aGUgcmVxdWVzdCBvZiBhIHVzZXIgYW5kIG1heSBoYXZlIGNyZWF0ZWQgb3IgbW9kaWZpZWQgdGhlIGZpbGUgY29udGVudHMubXNvZnR3YXJlQWdlbnShZG5hbWVmQ2xhdWRlcmFsbEFjdGlvbnNJbmNsdWRlZPUAAADIanVtYgAAAEBqdW1kY2JvcgARABCAAACqADibcRNjMnBhLmhhc2guZGF0YQAAAAAYYzJzaE0/pvyyTf3Ay4zjUwnkuU4AAACAY2JvcqVjYWxnZnNoYTI1NmNwYWRNAAAAAAAAAAAAAAAAAGRoYXNoWCApWnHMhxKc2y5xJ8dVA5H4RdxtIbtUy4GYorPsRbQDyGRuYW1lbmp1bWJmIG1hbmlmZXN0amV4Y2x1c2lvbnOBomVzdGFydBjBZmxlbmd0aBkeBAAAAj5qdW1iAAAAJ2p1bWRjMmNsABEAEIAAAKoAOJtxA2MycGEuY2xhaW0udjIAAAACD2Nib3KlY2FsZ2ZzaGEyNTZpc2lnbmF0dXJleE1zZWxmI2p1bWJmPS9jMnBhL3VybjpjMnBhOjA4ZTg2MGMzLTNjMTQtNDJiZi04NTgxLTlmOThhMDcwODI5Yy9jMnBhLnNpZ25hdHVyZWppbnN0YW5jZUlEeCx4bXA6aWlkOjVjOWRhNGJmLWUwNWQtNDk2My1hZjVmLWZlOGJiYTBlNzM1MHJjcmVhdGVkX2Fzc2VydGlvbnODomN1cmx4LXNlbGYjanVtYmY9YzJwYS5hc3NlcnRpb25zL2MycGEuaW5ncmVkaWVudC52M2RoYXNoWCBO5IgvjkVZjAV0LfXO7pVK21X+J8FYsSX2xCP72JkZ/6JjdXJseCpzZWxmI2p1bWJmPWMycGEuYXNzZXJ0aW9ucy9jMnBhLmFjdGlvbnMudjJkaGFzaFgg9Yy6iDdLrw7bsp/KX92PSeLmhqvDHc66hsVLi2olM0miY3VybHgpc2VsZiNqdW1iZj1jMnBhLmFzc2VydGlvbnMvYzJwYS5oYXNoLmRhdGFkaGFzaFgge2SsMsbELG4N60Npa7J415PIpu2m3wOa+a3GfJNf3OV0Y2xhaW1fZ2VuZXJhdG9yX2luZm+jZG5hbWVvQW50aHJvcGljIEZpbGVzZ3ZlcnNpb25lMS4wLjBrc3BlY1ZlcnNpb25lMi40LjAAABA4anVtYgAAAChqdW1kYzJjcwARABCAAACqADibcQNjMnBhLnNpZ25hdHVyZQAAABAIY2JvctKEWQISogEmGCFZAgowggIGMIIBjaADAgECAhRA5aAK7sI50L64g/oGQgU9Z1UTADAKBggqhkjOPQQDAzBJMRcwFQYDVQQKEw5BbnRocm9waWMsIFBCQzEuMCwGA1UEAxMlQW50aHJvcGljIENvbnRlbnQgQ3JlZGVudGlhbHMgUm9vdCBDQTAeFw0yNjA4MDcxODQzNTZaFw0yODA4MDYxOTQzNTZaMEQxFzAVBgNVBAoTDkFudGhyb3BpYywgUEJDMSkwJwYDVQQDEyBBbnRocm9waWMgQ2xhdWRlIENvbnRlbnQgU2lnbmluZzBZMBMGByqGSM49AgEGCCqGSM49AwEHA0IABJh6CmvLUBgFFNU0vUKlOVtE6djd17L5SuwX0LemFisBM3dkd/3cyjxFA3Qo5S46fX0/ihY0VZ7mfb9KF703t5OjWDBWMA4GA1UdDwEB/wQEAwIHgDAVBgNVHSUEDjAMBgorBgEEAYPoXgIBMAwGA1UdEwEB/wQCMAAwHwYDVR0jBBgwFoAUzlHiBIFOZFsj+OPEz5o+nMHXXMIwCgYIKoZIzj0EAwMDZwAwZAIwMXMdFJ4BetLLVY7ORuE9noqbbAZOZn/aArXyTwFAZfKrPzxF2vPoJNf1+UCdg1XGAjBwX1zd9WGqYkqmL5SFqw1QySjr1zJfpJM9+1rdDwSPLMOPOjKuiXjoU/pUUeG9RwmhY3BhZFkNngAAAAAAAAAAAAAAAAAAAAAAAAAAAAAAAAAAAAAAAAAAAAAAAAAAAAAAAAAAAAAAAAAAAAAAAAAAAAAAAAAAAAAAAAAAAAAAAAAAAAAAAAAAAAAAAAAAAAAAAAAAAAAAAAAAAAAAAAAAAAAAAAAAAAAAAAAAAAAAAAAAAAAAAAAAAAAAAAAAAAAAAAAAAAAAAAAAAAAAAAAAAAAAAAAAAAAAAAAAAAAAAAAAAAAAAAAAAAAAAAAAAAAAAAAAAAAAAAAAAAAAAAAAAAAAAAAAAAAAAAAAAAAAAAAAAAAAAAAAAAAAAAAAAAAAAAAAAAAAAAAAAAAAAAAAAAAAAAAAAAAAAAAAAAAAAAAAAAAAAAAAAAAAAAAAAAAAAAAAAAAAAAAAAAAAAAAAAAAAAAAAAAAAAAAAAAAAAAAAAAAAAAAAAAAAAAAAAAAAAAAAAAAAAAAAAAAAAAAAAAAAAAAAAAAAAAAAAAAAAAAAAAAAAAAAAAAAAAAAAAAAAAAAAAAAAAAAAAAAAAAAAAAAAAAAAAAAAAAAAAAAAAAAAAAAAAAAAAAAAAAAAAAAAAAAAAAAAAAAAAAAAAAAAAAAAAAAAAAAAAAAAAAAAAAAAAAAAAAAAAAAAAAAAAAAAAAAAAAAAAAAAAAAAAAAAAAAAAAAAAAAAAAAAAAAAAAAAAAAAAAAAAAAAAAAAAAAAAAAAAAAAAAAAAAAAAAAAAAAAAAAAAAAAAAAAAAAAAAAAAAAAAAAAAAAAAAAAAAAAAAAAAAAAAAAAAAAAAAAAAAAAAAAAAAAAAAAAAAAAAAAAAAAAAAAAAAAAAAAAAAAAAAAAAAAAAAAAAAAAAAAAAAAAAAAAAAAAAAAAAAAAAAAAAAAAAAAAAAAAAAAAAAAAAAAAAAAAAAAAAAAAAAAAAAAAAAAAAAAAAAAAAAAAAAAAAAAAAAAAAAAAAAAAAAAAAAAAAAAAAAAAAAAAAAAAAAAAAAAAAAAAAAAAAAAAAAAAAAAAAAAAAAAAAAAAAAAAAAAAAAAAAAAAAAAAAAAAAAAAAAAAAAAAAAAAAAAAAAAAAAAAAAAAAAAAAAAAAAAAAAAAAAAAAAAAAAAAAAAAAAAAAAAAAAAAAAAAAAAAAAAAAAAAAAAAAAAAAAAAAAAAAAAAAAAAAAAAAAAAAAAAAAAAAAAAAAAAAAAAAAAAAAAAAAAAAAAAAAAAAAAAAAAAAAAAAAAAAAAAAAAAAAAAAAAAAAAAAAAAAAAAAAAAAAAAAAAAAAAAAAAAAAAAAAAAAAAAAAAAAAAAAAAAAAAAAAAAAAAAAAAAAAAAAAAAAAAAAAAAAAAAAAAAAAAAAAAAAAAAAAAAAAAAAAAAAAAAAAAAAAAAAAAAAAAAAAAAAAAAAAAAAAAAAAAAAAAAAAAAAAAAAAAAAAAAAAAAAAAAAAAAAAAAAAAAAAAAAAAAAAAAAAAAAAAAAAAAAAAAAAAAAAAAAAAAAAAAAAAAAAAAAAAAAAAAAAAAAAAAAAAAAAAAAAAAAAAAAAAAAAAAAAAAAAAAAAAAAAAAAAAAAAAAAAAAAAAAAAAAAAAAAAAAAAAAAAAAAAAAAAAAAAAAAAAAAAAAAAAAAAAAAAAAAAAAAAAAAAAAAAAAAAAAAAAAAAAAAAAAAAAAAAAAAAAAAAAAAAAAAAAAAAAAAAAAAAAAAAAAAAAAAAAAAAAAAAAAAAAAAAAAAAAAAAAAAAAAAAAAAAAAAAAAAAAAAAAAAAAAAAAAAAAAAAAAAAAAAAAAAAAAAAAAAAAAAAAAAAAAAAAAAAAAAAAAAAAAAAAAAAAAAAAAAAAAAAAAAAAAAAAAAAAAAAAAAAAAAAAAAAAAAAAAAAAAAAAAAAAAAAAAAAAAAAAAAAAAAAAAAAAAAAAAAAAAAAAAAAAAAAAAAAAAAAAAAAAAAAAAAAAAAAAAAAAAAAAAAAAAAAAAAAAAAAAAAAAAAAAAAAAAAAAAAAAAAAAAAAAAAAAAAAAAAAAAAAAAAAAAAAAAAAAAAAAAAAAAAAAAAAAAAAAAAAAAAAAAAAAAAAAAAAAAAAAAAAAAAAAAAAAAAAAAAAAAAAAAAAAAAAAAAAAAAAAAAAAAAAAAAAAAAAAAAAAAAAAAAAAAAAAAAAAAAAAAAAAAAAAAAAAAAAAAAAAAAAAAAAAAAAAAAAAAAAAAAAAAAAAAAAAAAAAAAAAAAAAAAAAAAAAAAAAAAAAAAAAAAAAAAAAAAAAAAAAAAAAAAAAAAAAAAAAAAAAAAAAAAAAAAAAAAAAAAAAAAAAAAAAAAAAAAAAAAAAAAAAAAAAAAAAAAAAAAAAAAAAAAAAAAAAAAAAAAAAAAAAAAAAAAAAAAAAAAAAAAAAAAAAAAAAAAAAAAAAAAAAAAAAAAAAAAAAAAAAAAAAAAAAAAAAAAAAAAAAAAAAAAAAAAAAAAAAAAAAAAAAAAAAAAAAAAAAAAAAAAAAAAAAAAAAAAAAAAAAAAAAAAAAAAAAAAAAAAAAAAAAAAAAAAAAAAAAAAAAAAAAAAAAAAAAAAAAAAAAAAAAAAAAAAAAAAAAAAAAAAAAAAAAAAAAAAAAAAAAAAAAAAAAAAAAAAAAAAAAAAAAAAAAAAAAAAAAAAAAAAAAAAAAAAAAAAAAAAAAAAAAAAAAAAAAAAAAAAAAAAAAAAAAAAAAAAAAAAAAAAAAAAAAAAAAAAAAAAAAAAAAAAAAAAAAAAAAAAAAAAAAAAAAAAAAAAAAAAAAAAAAAAAAAAAAAAAAAAAAAAAAAAAAAAAAAAAAAAAAAAAAAAAAAAAAAAAAAAAAAAAAAAAAAAAAAAAAAAAAAAAAAAAAAAAAAAAAAAAAAAAAAAAAAAAAAAAAAAAAAAAAAAAAAAAAAAAAAAAAAAAAAAAAAAAAAAAAAAAAAAAAAAAAAAAAAAAAAAAAAAAAAAAAAAAAAAAAAAAAAAAAAAAAAAAAAAAAAAAAAAAAAAAAAAAAAAAAAAAAAAAAAAAAAAAAAAAAAAAAAAAAAAAAAAAAAAAAAAAAAAAAAAAAAAAAAAAAAAAAAAAAAAAAAAAAAAAAAAAAAAAAAAAAAAAAAAAAAAAAAAAAAAAAAAAAAAAAAAAAAAAAAAAAAAAAAAAAAAAAAAAAAAAAAAAAAAAAAAAAAAAAAAAAAAAAAAAAAAAAAAAAAAAAAAAAAAAAAAAAAAAAAAAAAAAAAAAAAAAAAAAAAAAAAAAAAAAAAAAAAAAAAAAAAAAAAAAAAAAAAAAAAAAAAAAAAAAAAAAAAAAAAAAAAAAAAAAAAAAAAAAAAAAAAAAAAAAAAAAAAAAAAAAAAAAAAAAAAAAAAAAAAAAAAAAAAAAAAAAAAAAAAAAAAAAAAAAAAAAAAAAAAAAAAAAAAAAAAAAAAAAAAAAAAAAAAAAAAAAAAAAAAAAAAAAAAAAAAAAAAAAAAAAAAAAAAAAAAAAAAAAAAAAAAAAAAAAAAAAAAAAAAAAAAAAAAAAAAAAAAAAAAAAAAAAAAAAAAAAAAAAAAAAAAAAAAAAAAAAAAAAAAAAAAAAAAAAAAAAAAAAAAAAAAAAAAAAAAAAAAAAAAAAAAAAAAAAAAAAAAAAAAAAAAAAAAAAAAAAAAAAAAAAAAAAAAAAAAAAAAAAAAAAAAAAAAAAAAAAAAAAAAAAAAAAAAAAAAAAAAAAAAAAAAAAAAAAAAAAAAAAAAAAAAAAAAAAAAAAAAAAAAAAAAAAAAAAAAAAAAAAAAAAAAAAAAAAAAAAAAAAAAAAAAAAAAAAAAAAAAAAAAAAAAAAAAAAAAAAAAAAAAAAAAAAAAAAAAAAAAAAAAAAAAAAAAAAAAAAAAAAAAAAAAAAAAAAAAAAAAAAAAAAAAAAAAAAAAAAAAAAAAAAAAAAAAAAAAAAAAAAAAAAAAAAAAAAAAAAAAAAAAAAAAAAAAAAAAAAAAAAAAAAAAAAAAAAAAAAAAAAAAAAAAAAAAAAAAAAAAAAAAAAAAAAAAAAAAAAAAAAAAAAAAAAAAAAAAAAAAAAAAAAAAAAAAAAAAAAAAAAAAAAAAAAAAAAAAAAAAAAAAAAAAAAAAAAAAAAAAAAAAAAAAAAAAAAAAAAAAAAAAAAAAAAAAAAAAAAAAAAAAAAAAAAAAAAAAAAAAAAAAAAAAAAAAAAAAAAAAAAAAAAAAAAAAAAAAAAAAAAAAAAAAAAAAAAAAAAAAAAAAAAAAAAAAAAAAAAAAAAAAAAAAAAAAAAAAAAAAAAAAAAAAAAAAAAAAAAAAAAAAAAAAAAAAAAAAAAAAAAAAAAAAAAAAAAAAAAAAAAAAAAAAAAAAAAAAAAAAAAAAAAAAAAAAAAAAAAAAAAAAAAAAAAAAAAAAAAAAAAAAAAAAAAAAAAAAAAAAAAAAAAAAAAAAAAAAAAAAAAAAAAAAAAAAAAAAAAAAAAAAAAAAAAAAAAAAAAAAAAAAAAAAAAAAAAAAAAAAAAAAAAAAAAAAAAAAAAAAAAAAAAAAAAAAAAAAAAAAAAAAAAAAAAAAAAAAAAAAAAAAAAAAAAAAAAAAAAAAAAAAAAAAAAAAAAAAAAAAAAAAAAAAAAAAAAAAAAAAAAAAAAAAAAAAAAAAAAAAAAAAAAAAAAAAAAAAAAAAAAAAAAAAAAAAAAAAAAAAAAAAAAAAAAAAAAAAAAAAAAAAAAAAAAAAAAAAPZYQA8hA0N3157GYm6rShWTqW8n/asbmF2ngRmaO0iOMRVPqp1pqZuSiicu7/6DBWUpyfOJ0hDw1xeExUjYevWt7fU=</c2pa:manifest></metadata><title>Rådbanken</title><defs><linearGradient id="rbGold" gradientUnits="userSpaceOnUse" x1="0" y1="0" x2="240" y2="340"><stop offset="0" stop-color="#a8966c"></stop><stop offset="0.22" stop-color="#efe4c6"></stop><stop offset="0.42" stop-color="#cdbb8f"></stop><stop offset="0.62" stop-color="#f3ead2"></stop><stop offset="0.82" stop-color="#c2ae80"></stop><stop offset="1" stop-color="#9c8a62"></stop></linearGradient>
<symbol id="rbPuff" viewBox="0 0 100 100"><path d="M50 42L50 16M50 16l-6.7 -6M50 16l-3.7 -8.2M50 16l0 -9M50 16l3.7 -8.2M50 16l6.7 -6M51.8 42.2L57.6 16.9M57.6 16.9l-5.2 -7.3M57.6 16.9l-1.7 -8.8M57.6 16.9l2 -8.8M57.6 16.9l5.4 -7.2M57.6 16.9l7.9 -4.4M53.5 42.8L64.8 19.4M64.8 19.4l-3.4 -8.3M64.8 19.4l0.3 -9M64.8 19.4l3.9 -8.1M64.8 19.4l6.9 -5.8M64.8 19.4l8.6 -2.5M55 43.7L71.2 23.4M71.2 23.4l-1.5 -8.9M71.2 23.4l2.3 -8.7M71.2 23.4l5.6 -7M71.2 23.4l8 -4.1M71.2 23.4l9 -0.5M56.3 45L76.6 28.8M76.6 28.8l0.5 -9M76.6 28.8l4.1 -8M76.6 28.8l7 -5.6M76.6 28.8l8.7 -2.3M76.6 28.8l8.9 1.5M57.2 46.5L80.6 35.2M80.6 35.2l2.5 -8.6M80.6 35.2l5.8 -6.9M80.6 35.2l8.1 -3.9M80.6 35.2l9 -0.3M80.6 35.2l8.3 3.4M57.8 48.2L83.1 42.4M83.1 42.4l4.4 -7.9M83.1 42.4l7.2 -5.4M83.1 42.4l8.8 -2M83.1 42.4l8.8 1.7M83.1 42.4l7.3 5.2M58 50L84 50M84 50l6 -6.7M84 50l8.2 -3.7M84 50l9 0M84 50l8.2 3.7M84 50l6 6.7M57.8 51.8L83.1 57.6M83.1 57.6l7.3 -5.2M83.1 57.6l8.8 -1.7M83.1 57.6l8.8 2M83.1 57.6l7.2 5.4M83.1 57.6l4.4 7.9M57.2 53.5L80.6 64.8M80.6 64.8l8.3 -3.4M80.6 64.8l9 0.3M80.6 64.8l8.1 3.9M80.6 64.8l5.8 6.9M80.6 64.8l2.5 8.6M56.3 55L76.6 71.2M76.6 71.2l8.9 -1.5M76.6 71.2l8.7 2.3M76.6 71.2l7 5.6M76.6 71.2l4.1 8M76.6 71.2l0.5 9M55 56.3L71.2 76.6M71.2 76.6l9 0.5M71.2 76.6l8 4.1M71.2 76.6l5.6 7M71.2 76.6l2.3 8.7M71.2 76.6l-1.5 8.9M53.5 57.2L64.8 80.6M64.8 80.6l8.6 2.5M64.8 80.6l6.9 5.8M64.8 80.6l3.9 8.1M64.8 80.6l0.3 9M64.8 80.6l-3.4 8.3M46.5 57.2L35.2 80.6M35.2 80.6l3.4 8.3M35.2 80.6l-0.3 9M35.2 80.6l-3.9 8.1M35.2 80.6l-6.9 5.8M35.2 80.6l-8.6 2.5M45 56.3L28.8 76.6M28.8 76.6l1.5 8.9M28.8 76.6l-2.3 8.7M28.8 76.6l-5.6 7M28.8 76.6l-8 4.1M28.8 76.6l-9 0.5M43.7 55L23.4 71.2M23.4 71.2l-0.5 9M23.4 71.2l-4.1 8M23.4 71.2l-7 5.6M23.4 71.2l-8.7 2.3M23.4 71.2l-8.9 -1.5M42.8 53.5L19.4 64.8M19.4 64.8l-2.5 8.6M19.4 64.8l-5.8 6.9M19.4 64.8l-8.1 3.9M19.4 64.8l-9 0.3M19.4 64.8l-8.3 -3.4M42.2 51.8L16.9 57.6M16.9 57.6l-4.4 7.9M16.9 57.6l-7.2 5.4M16.9 57.6l-8.8 2M16.9 57.6l-8.8 -1.7M16.9 57.6l-7.3 -5.2M42 50L16 50M16 50l-6 6.7M16 50l-8.2 3.7M16 50l-9 0M16 50l-8.2 -3.7M16 50l-6 -6.7M42.2 48.2L16.9 42.4M16.9 42.4l-7.3 5.2M16.9 42.4l-8.8 1.7M16.9 42.4l-8.8 -2M16.9 42.4l-7.2 -5.4M16.9 42.4l-4.4 -7.9M42.8 46.5L19.4 35.2M19.4 35.2l-8.3 3.4M19.4 35.2l-9 -0.3M19.4 35.2l-8.1 -3.9M19.4 35.2l-5.8 -6.9M19.4 35.2l-2.5 -8.6M43.7 45L23.4 28.8M23.4 28.8l-8.9 1.5M23.4 28.8l-8.7 -2.3M23.4 28.8l-7 -5.6M23.4 28.8l-4.1 -8M23.4 28.8l-0.5 -9M45 43.7L28.8 23.4M28.8 23.4l-9 -0.5M28.8 23.4l-8 -4.1M28.8 23.4l-5.6 -7M28.8 23.4l-2.3 -8.7M28.8 23.4l1.5 -8.9M46.5 42.8L35.2 19.4M35.2 19.4l-8.6 -2.5M35.2 19.4l-6.9 -5.8M35.2 19.4l-3.9 -8.1M35.2 19.4l-0.3 -9M35.2 19.4l3.4 -8.3M48.2 42.2L42.4 16.9M42.4 16.9l-7.9 -4.4M42.4 16.9l-5.4 -7.2M42.4 16.9l-2 -8.8M42.4 16.9l1.7 -8.8M42.4 16.9l5.2 -7.3M51.8 42.2L54.7 29.5M54.7 29.5l-1.2 -5.9M54.7 29.5l1.3 -5.8M54.7 29.5l3.6 -4.8M55 43.7L63.1 33.6M63.1 33.6l1.5 -5.8M63.1 33.6l3.7 -4.7M63.1 33.6l5.3 -2.8M57.2 46.5L68.9 40.9M68.9 40.9l3.9 -4.6M68.9 40.9l5.4 -2.6M68.9 40.9l6 -0.2M58 50L71 50M71 50l5.5 -2.4M71 50l6 0M71 50l5.5 2.4M57.2 53.5L68.9 59.1M68.9 59.1l6 0.2M68.9 59.1l5.4 2.6M68.9 59.1l3.9 4.6M55 56.3L63.1 66.4M63.1 66.4l5.3 2.8M63.1 66.4l3.7 4.7M63.1 66.4l1.5 5.8M45 56.3L36.9 66.4M36.9 66.4l-1.5 5.8M36.9 66.4l-3.7 4.7M36.9 66.4l-5.3 2.8M42.8 53.5L31.1 59.1M31.1 59.1l-3.9 4.6M31.1 59.1l-5.4 2.6M31.1 59.1l-6 0.2M42 50L29 50M29 50l-5.5 2.4M29 50l-6 0M29 50l-5.5 -2.4M42.8 46.5L31.1 40.9M31.1 40.9l-6 -0.2M31.1 40.9l-5.4 -2.6M31.1 40.9l-3.9 -4.6M45 43.7L36.9 33.6M36.9 33.6l-5.3 -2.8M36.9 33.6l-3.7 -4.7M36.9 33.6l-1.5 -5.8M48.2 42.2L45.3 29.5M45.3 29.5l-3.6 -4.8M45.3 29.5l-1.3 -5.8M45.3 29.5l1.2 -5.9" style="fill:none;stroke:#f5eee0;stroke-width:1.6;stroke-linecap:round;stroke-linejoin:round"></path><circle cx="50" cy="50" r="6" style="fill:#d9c89c"></circle></symbol>
<symbol id="rbSeed" viewBox="0 0 20 30"><path d="M10 28V10M10 10L3 3M10 10V1M10 10L17 3" style="fill:none;stroke:#f5eee0;stroke-width:2.4;stroke-linecap:round;stroke-linejoin:round"></path></symbol>
<symbol id="rbLeafArc" viewBox="0 0 240 340"><g transform="translate(49.7 227.7) scale(1.8)"><g transform="translate(38.5 33.5) rotate(-140.7) scale(1 0.68) rotate(140.7) translate(-38.5 -33.5)"><path d="M24.87 -0.02L25.04 -0.05L25.24 -0.05L25.44 -0.05L25.64 -0.05L25.82 -0.03L25.94 0.05L26.14 0.05L26.27 0.12L26.44 0.15L26.57 0.22L26.74 0.25L26.87 0.32L27.02 0.37L27.14 0.45L27.27 0.52L27.42 0.57L27.54 0.65L27.67 0.72L27.82 0.77L27.94 0.85L28.07 0.92L28.17 1.02L28.32 1.07L28.42 1.17L28.54 1.25L28.72 1.27L28.82 1.37L28.92 1.47L29.04 1.55L29.17 1.62L29.27 1.72L29.37 1.82L29.52 1.87L29.62 1.97L29.72 2.07L29.82 2.17L29.92 2.27L30.02 2.37L30.12 2.47L30.22 2.57L30.34 2.65L30.47 2.72L30.57 2.82L30.67 2.92L30.77 3.02L30.87 3.12L30.97 3.22L31.07 3.32L31.17 3.42L31.27 3.52L31.37 3.62L31.47 3.72L31.57 3.82L31.67 3.92L31.77 4.02L31.87 4.12L31.97 4.22L32.07 4.32L32.17 4.42L32.27 4.52L32.37 4.62L32.47 4.72L32.57 4.82L32.65 4.94L32.72 5.07L32.82 5.17L32.92 5.27L33.02 5.37L33.12 5.47L33.22 5.57L33.32 5.67L33.42 5.77L33.52 5.87L33.62 5.97L33.67 6.12L33.77 6.22L33.87 6.32L33.97 6.42L34.05 6.54L34.12 6.67L34.22 6.77L34.32 6.87L34.42 6.97L34.52 7.07L34.57 7.22L34.67 7.32L34.77 7.42L34.87 7.52L34.95 7.64L35.02 7.77L35.12 7.87L35.17 8.02L35.27 8.12L35.35 8.24L35.42 8.37L35.52 8.47L35.57 8.62L35.67 8.72L35.75 8.84L35.82 8.97L35.92 9.07L35.97 9.22L36.07 9.32L36.17 9.42L36.25 9.54L36.32 9.67L36.42 9.77L36.52 9.87L36.62 9.97L36.72 10.07L36.82 10.17L36.87 10.32L36.97 10.42L37.07 10.52L37.15 10.64L37.22 10.77L37.27 10.92L37.35 11.04L37.42 11.17L37.52 11.27L37.57 11.42L37.67 11.52L37.75 11.64L37.82 11.77L37.87 11.92L37.97 12.02L38.05 12.14L38.12 12.27L38.17 12.42L38.25 12.54L38.32 12.67L38.35 12.84L38.42 12.97L38.47 13.12L38.55 13.24L38.57 13.42L38.65 13.54L38.72 13.67L38.75 13.84L38.82 13.97L38.85 14.14L38.92 14.27L38.95 14.44L39.02 14.57L39.05 14.74L39.12 14.87L39.17 15.02L39.25 15.14L39.27 15.32L39.35 15.44L39.37 15.62L39.45 15.74L39.52 15.87L39.55 16.04L39.57 16.22L39.65 16.34L39.65 16.54L39.72 16.67L39.75 16.84L39.82 16.97L39.85 17.14L39.85 17.34L39.92 17.47L39.95 17.64L39.95 17.84L39.97 18.02L40.05 18.14L40.05 18.34L40.05 18.54L40.05 18.74L40.12 18.87L40.15 19.04L40.15 19.24L40.15 19.44L40.15 19.64L40.15 19.84L40.15 20.04L40.15 20.24L40.15 20.44L40.15 20.64L40.15 20.84L40.15 21.04L40.15 21.24L40.15 21.44L40.15 21.64L40.15 21.84L40.15 22.04L40.15 22.24L40.15 22.44L40.15 22.64L40.15 22.84L40.15 23.04L40.15 23.24L40.15 23.44L40.15 23.64L40.15 23.84L40.15 24.04L40.15 24.24L40.15 24.44L40.15 24.64L40.15 24.84L40.15 25.04L40.15 25.24L40.15 25.44L40.15 25.64L40.17 25.82L40.25 25.94L40.25 26.14L40.25 26.34L40.25 26.54L40.25 26.74L40.25 26.94L40.25 27.14L40.25 27.34L40.25 27.54L40.25 27.74L40.25 27.94L40.25 28.14L40.25 28.34L40.25 28.54L40.25 28.74L40.25 28.94L40.25 29.14L40.25 29.34L40.25 29.54L40.25 29.74L40.25 29.94L40.25 30.14L40.25 30.34L40.25 30.54L40.25 30.74L40.25 30.94L40.25 31.14L40.25 31.34L40.25 31.54L40.25 31.74L40.25 31.94L40.25 32.14L40.25 32.34L40.25 32.54L40.25 32.74L40.27 32.92L40.35 33.04L40.28 33.17L40.18 33.27L40.06 33.35L39.86 33.35L39.66 33.35L39.46 33.35L39.28 33.37L39.16 33.45L38.98 33.43L38.86 33.35L38.73 33.28L38.58 33.23L38.53 33.08L38.45 32.96L38.45 32.76L38.45 32.56L38.45 32.36L38.45 32.16L38.45 31.96L38.45 31.76L38.45 31.56L38.45 31.36L38.45 31.16L38.45 30.96L38.45 30.76L38.43 30.58L38.35 30.46L38.35 30.26L38.35 30.06L38.35 29.86L38.35 29.66L38.28 29.53L38.25 29.36L38.25 29.16L38.25 28.96L38.25 28.76L38.25 28.56L38.25 28.36L38.25 28.16L38.25 27.96L38.27 27.78L38.35 27.66L38.35 27.46L38.35 27.26L38.35 27.06L38.28 26.93L38.25 26.76L38.25 26.56L38.23 26.38L38.15 26.26L38.13 26.08L38.05 25.96L38.03 25.78L37.95 25.66L37.95 25.46L37.95 25.26L37.88 25.13L37.85 24.96L37.83 24.78L37.75 24.66L37.75 24.46L37.68 24.33L37.65 24.16L37.58 24.03L37.55 23.86L37.48 23.73L37.45 23.56L37.38 23.43L37.35 23.26L37.28 23.13L37.23 22.98L37.13 22.88L37.05 22.76L36.98 22.63L36.88 22.53L36.78 22.43L36.68 22.33L36.63 22.18L36.53 22.08L36.43 21.98L36.33 21.88L36.23 21.78L36.13 21.68L36.03 21.58L35.93 21.48L35.83 21.38L35.73 21.28L35.63 21.18L35.53 21.08L35.43 20.98L35.33 20.88L35.18 20.83L35.08 20.73L34.98 20.63L34.86 20.55L34.73 20.48L34.63 20.38L34.48 20.33L34.38 20.23L34.26 20.15L34.13 20.08L33.98 20.03L33.86 19.95L33.73 19.88L33.63 19.78L33.48 19.73L33.36 19.65L33.23 19.58L33.08 19.53L32.96 19.45L32.78 19.43L32.66 19.35L32.46 19.35L32.33 19.28L32.16 19.25L31.96 19.25L31.76 19.25L31.58 19.23L31.46 19.15L31.26 19.15L31.06 19.15L30.86 19.15L30.66 19.15L30.46 19.15L30.26 19.15L30.06 19.15L29.86 19.15L29.66 19.15L29.46 19.15L29.33 19.08L29.16 19.05L28.96 19.05L28.76 19.05L28.58 19.07L28.46 19.15L28.26 19.15L28.06 19.15L27.88 19.17L27.76 19.25L27.56 19.25L27.36 19.25L27.23 19.18L27.06 19.15L26.86 19.15L26.66 19.15L26.48 19.13L26.36 19.05L26.23 18.98L26.13 18.88L26.03 18.78L25.93 18.68L25.85 18.56L25.78 18.43L25.73 18.28L25.65 18.16L25.58 18.03L25.53 17.88L25.45 17.76L25.43 17.58L25.35 17.46L25.35 17.26L25.37 17.08L25.45 16.96L25.47 16.78L25.57 16.68L25.65 16.56L25.72 16.43L25.82 16.33L25.92 16.23L25.97 16.08L26.05 15.96L26.12 15.83L26.17 15.68L26.25 15.56L26.32 15.43L26.42 15.33L26.52 15.23L26.62 15.13L26.72 15.03L26.82 14.93L26.94 14.85L27.07 14.78L27.22 14.73L27.32 14.63L27.44 14.55L27.57 14.48L27.67 14.38L27.82 14.33L27.92 14.23L28.02 14.13L28.12 14.03L28.06 13.95L27.93 13.88L27.76 13.85L27.56 13.85L27.36 13.85L27.16 13.85L26.96 13.85L26.76 13.85L26.63 13.92L26.48 13.97L26.36 14.05L26.23 14.12L26.06 14.15L25.93 14.22L25.76 14.25L25.58 14.27L25.46 14.35L25.26 14.35L25.13 14.42L24.96 14.45L24.78 14.47L24.66 14.55L24.46 14.55L24.33 14.62L24.16 14.65L23.98 14.67L23.86 14.75L23.66 14.75L23.53 14.82L23.36 14.85L23.18 14.87L23.06 14.95L22.86 14.95L22.73 15.02L22.56 15.05L22.38 15.07L22.26 15.15L22.13 15.22L21.98 15.27L21.86 15.35L21.73 15.42L21.56 15.45L21.43 15.52L21.28 15.57L21.16 15.65L20.96 15.65L20.78 15.67L20.66 15.75L20.46 15.75L20.28 15.77L20.16 15.85L19.96 15.85L19.83 15.92L19.66 15.95L19.48 15.97L19.36 16.05L19.16 16.05L19.03 16.12L18.86 16.15L18.66 16.15L18.53 16.22L18.36 16.25L18.16 16.25L17.96 16.25L17.76 16.25L17.56 16.25L17.36 16.25L17.23 16.32L17.06 16.35L16.86 16.35L16.73 16.28L16.56 16.25L16.36 16.25L16.16 16.25L15.96 16.25L15.76 16.25L15.58 16.23L15.46 16.15L15.26 16.15L15.08 16.13L14.98 16.03L14.88 15.93L14.78 15.83L14.73 15.68L14.65 15.56L14.63 15.38L14.55 15.26L14.55 15.06L14.55 14.86L14.48 14.73L14.45 14.56L14.45 14.36L14.45 14.16L14.47 13.98L14.55 13.86L14.62 13.73L14.72 13.63L14.84 13.55L14.97 13.48L15.07 13.38L15.22 13.33L15.32 13.23L15.44 13.15L15.57 13.08L15.67 12.98L15.77 12.88L15.87 12.78L16.02 12.73L16.12 12.63L16.22 12.53L16.32 12.43L16.44 12.35L16.57 12.28L16.67 12.18L16.77 12.08L16.87 11.98L17.02 11.93L17.12 11.83L17.22 11.73L17.34 11.65L17.47 11.58L17.55 11.46L17.48 11.33L17.36 11.25L17.18 11.23L17.06 11.15L16.86 11.15L16.66 11.15L16.46 11.15L16.26 11.15L16.06 11.15L15.86 11.15L15.66 11.15L15.46 11.15L15.33 11.22L15.16 11.25L14.98 11.27L14.86 11.35L14.68 11.37L14.56 11.45L14.36 11.45L14.23 11.52L14.06 11.55L13.88 11.57L13.76 11.65L13.56 11.65L13.38 11.67L13.26 11.75L13.06 11.75L12.86 11.75L12.68 11.77L12.56 11.85L12.36 11.85L12.16 11.85L11.96 11.85L11.76 11.85L11.58 11.87L11.46 11.95L11.26 11.95L11.08 11.93L10.96 11.85L10.76 11.85L10.56 11.85L10.36 11.85L10.16 11.85L9.96 11.85L9.83 11.78L9.66 11.75L9.53 11.68L9.43 11.58L9.28 11.53L9.18 11.43L9.08 11.33L8.98 11.23L8.88 11.13L8.83 10.98L8.73 10.88L8.63 10.78L8.55 10.66L8.48 10.53L8.43 10.38L8.35 10.26L8.28 10.13L8.23 9.98L8.15 9.86L8.13 9.68L8.05 9.56L8.05 9.36L8.05 9.16L8.05 8.96L8.05 8.76L8.05 8.56L8.05 8.36L8.05 8.16L8.12 8.03L8.15 7.86L8.17 7.68L8.25 7.56L8.25 7.36L8.27 7.18L8.33 7.08L8.23 6.98L8.06 6.95L7.86 6.95L7.66 6.95L7.46 6.95L7.28 6.93L7.16 6.85L6.96 6.85L6.76 6.85L6.58 6.87L6.46 6.95L6.26 6.95L6.06 6.95L5.86 6.95L5.66 6.95L5.46 6.95L5.26 6.95L5.06 6.95L4.86 6.95L4.66 6.95L4.46 6.95L4.26 6.95L4.06 6.95L3.88 6.93L3.76 6.85L3.56 6.85L3.38 6.83L3.26 6.75L3.08 6.73L2.96 6.65L2.78 6.63L2.66 6.55L2.48 6.53L2.36 6.45L2.23 6.38L2.08 6.33L1.96 6.25L1.83 6.18L1.68 6.13L1.56 6.05L1.43 5.98L1.33 5.88L1.18 5.83L1.08 5.73L0.98 5.63L0.88 5.53L0.78 5.43L0.66 5.35L0.53 5.28L0.45 5.16L0.38 5.03L0.28 4.93L0.18 4.83L0.13 4.68L0.05 4.56L0.03 4.38L-0.05 4.26L-0.05 4.06L-0.05 3.86L-0.05 3.66L-0.05 3.46L-0.05 3.26L0.02 3.13L0.07 2.98L0.17 2.88L0.27 2.78L0.37 2.68L0.52 2.63L0.62 2.53L0.74 2.45L0.87 2.38L1.04 2.35L1.17 2.28L1.34 2.25L1.47 2.18L1.64 2.15L1.84 2.15L2.04 2.15L2.17 2.08L2.34 2.05L2.54 2.05L2.74 2.05L2.92 2.03L3.04 1.95L3.24 1.95L3.37 1.88L3.54 1.85L3.74 1.85L3.94 1.85L4.07 1.78L4.24 1.75L4.44 1.75L4.62 1.73L4.74 1.65L4.94 1.65L5.14 1.65L5.34 1.65L5.47 1.58L5.64 1.55L5.84 1.55L6.02 1.53L6.14 1.45L6.34 1.45L6.54 1.45L6.74 1.45L6.92 1.43L7.04 1.35L7.24 1.35L7.44 1.35L7.64 1.35L7.84 1.35L7.97 1.28L8.14 1.25L8.34 1.25L8.54 1.25L8.74 1.25L8.87 1.18L9.04 1.15L9.24 1.15L9.42 1.13L9.54 1.05L9.74 1.05L9.94 1.05L10.14 1.05L10.34 1.05L10.47 0.98L10.64 0.95L10.84 0.95L11.04 0.95L11.24 0.95L11.44 0.95L11.64 0.95L11.77 1.02L11.94 1.05L12.14 1.05L12.34 1.05L12.54 1.05L12.74 1.05L12.94 1.05L13.14 1.05L13.34 1.05L13.54 1.05L13.72 1.07L13.84 1.15L14.04 1.15L14.24 1.15L14.42 1.17L14.54 1.25L14.74 1.25L14.94 1.25L15.07 1.32L15.24 1.35L15.44 1.35L15.64 1.35L15.77 1.42L15.92 1.47L16.04 1.55L16.22 1.57L16.34 1.65L16.54 1.65L16.67 1.72L16.84 1.75L16.97 1.82L17.14 1.85L17.27 1.92L17.44 1.95L17.57 2.02L17.72 2.07L17.84 2.15L18.04 2.15L18.17 2.22L18.34 2.25L18.52 2.27L18.64 2.35L18.82 2.37L18.94 2.45L19.07 2.52L19.22 2.57L19.34 2.65L19.52 2.67L19.64 2.75L19.77 2.82L19.92 2.87L20.04 2.95L20.17 3.02L20.34 3.05L20.47 3.12L20.64 3.15L20.77 3.22L20.94 3.25L21.07 3.32L21.24 3.35L21.37 3.42L21.52 3.47L21.62 3.57L21.74 3.65L21.87 3.72L22.04 3.75L22.17 3.82L22.32 3.87L22.44 3.95L22.57 4.02L22.74 4.05L22.87 4.12L23.02 4.17L23.14 4.25L23.27 4.32L23.42 4.37L23.54 4.45L23.72 4.47L23.84 4.55L24.02 4.57L24.14 4.65L24.25 4.56L24.25 4.36L24.25 4.16L24.18 4.03L24.08 3.93L24.03 3.78L23.95 3.66L23.88 3.53L23.83 3.38L23.75 3.26L23.68 3.13L23.65 2.96L23.58 2.83L23.55 2.66L23.48 2.53L23.45 2.36L23.45 2.16L23.45 1.96L23.45 1.76L23.45 1.56L23.45 1.36L23.45 1.16L23.47 0.98L23.55 0.86L23.62 0.73L23.72 0.63L23.82 0.53L23.92 0.43L24.04 0.35L24.17 0.28L24.32 0.23L24.44 0.15L24.62 0.13L24.74 0.05Z" style="fill:#f5eee0"></path><path d="M38.5401 33.0312C38.5401 32.561 38.5277 31.8472 38.505 31.1982C38.4818 30.5377 38.4482 29.9753 38.4102 29.7861C38.3053 29.2643 38.3232 28.7322 38.3555 28.2598C38.389 27.7711 38.4345 27.3704 38.4063 27.0498C38.3609 26.534 38.2804 26.2709 38.1505 26.0107C38.0629 25.8352 38.0343 25.6508 38.0167 25.4863C37.9979 25.3112 37.9907 25.1622 37.9571 24.9932C37.8849 24.6304 37.7773 24.3881 37.6807 24.0576C37.5991 23.7783 37.4823 23.5003 37.3663 23.1777C37.3112 23.0248 37.222 22.886 37.1114 22.7432C37.056 22.6716 36.998 22.6021 36.9366 22.5283C36.8762 22.4558 36.8125 22.379 36.753 22.2998C36.4056 21.8376 35.6621 21.138 35.3282 20.875C35.0512 20.6568 34.7044 20.3964 34.4014 20.2207C34.253 20.1346 34.1074 20.0522 33.961 19.9697C33.8149 19.8875 33.6676 19.8044 33.5186 19.7178C33.2491 19.5609 32.9791 19.4699 32.6827 19.3711C32.4059 19.2788 32.0945 19.2619 31.7188 19.2227C31.3444 19.1835 30.9145 19.1145 28.7423 19.1016C28.2281 19.1372 28.1125 19.1817 27.8214 19.2217C27.8155 19.2225 27.8097 19.2232 27.8038 19.2236C27.5899 19.2373 27.256 19.2363 26.7667 19.1602C26.6302 19.1389 26.5364 19.0104 26.5577 18.874C26.5791 18.738 26.7067 18.645 26.8428 18.666C27.2908 18.7358 27.5864 18.7364 27.7637 18.7256C28.0013 18.6922 28.1845 18.6391 28.7208 18.6025L28.7393 18.6016C30.9334 18.6145 31.3802 18.6848 31.7706 18.7256C32.1059 18.7606 32.4969 18.7818 32.8409 18.8965C33.1334 18.994 33.4496 19.1 33.7696 19.2861C33.9151 19.3708 34.0597 19.4517 34.2061 19.5342C34.3521 19.6164 34.5007 19.7001 34.6524 19.7881C34.9883 19.9829 35.3579 20.2628 35.6368 20.4824C35.992 20.7622 36.7709 21.4914 37.1524 21.999C37.2035 22.067 37.2596 22.135 37.3204 22.208C37.3801 22.2797 37.4448 22.3572 37.5069 22.4375C37.6317 22.5986 37.7564 22.7849 37.837 23.0088C37.9415 23.2994 38.0732 23.62 38.1602 23.918C38.2358 24.1764 38.3707 24.5106 38.4473 24.8955C38.4868 25.0938 38.4983 25.2889 38.5137 25.4326C38.5303 25.587 38.5521 25.6967 38.5977 25.7881C38.7618 26.1168 38.8548 26.4433 38.9044 27.0059C38.9371 27.3781 38.8853 27.8453 38.8546 28.2939C38.8227 28.759 38.8095 29.2349 38.9005 29.6875C38.9485 29.9264 38.9824 30.5381 39.005 31.1807C39.0279 31.8349 39.0401 32.5546 39.0401 33.0312C39.0399 33.1691 38.928 33.2812 38.7901 33.2812C38.6522 33.2812 38.5403 33.1691 38.5401 33.0312ZM27.0529 13.3193C27.8241 13.3201 28.2498 13.3735 28.5509 13.6045C28.687 13.7088 28.7214 13.8748 28.7209 13.9883C28.7204 14.0783 28.709 14.2294 28.6066 14.3613C28.3708 14.6651 28.06 14.8988 27.7384 15.0859C27.4282 15.2664 27.0818 15.4358 26.8107 15.8125C26.7161 15.9439 26.6492 16.0875 26.5734 16.2471C26.5026 16.3962 26.418 16.5736 26.2922 16.7148C26.0744 16.9591 25.8921 17.171 25.9592 17.5049C25.9875 17.6461 26.0449 17.7633 26.131 17.8926C26.1897 17.9806 26.2396 18.0775 26.2824 18.1631C26.3275 18.2533 26.3649 18.3319 26.4074 18.4043C26.4935 18.551 26.5653 18.6139 26.6457 18.6338C26.7641 18.6632 26.8391 18.6631 26.8781 18.6631C27.0162 18.6631 27.1281 18.775 27.1281 18.9131C27.1279 19.051 27.0161 19.1631 26.8781 19.1631C26.82 19.1631 26.6991 19.1624 26.5246 19.1191C26.2433 19.0492 26.0821 18.8368 25.9767 18.6572C25.9235 18.5665 25.876 18.4684 25.8351 18.3867C25.792 18.3004 25.7545 18.2291 25.715 18.1699C25.6058 18.006 25.5141 17.8281 25.4689 17.6035C25.347 16.9961 25.7206 16.6045 25.9191 16.3818C25.9893 16.303 26.0453 16.1922 26.1213 16.0322C26.1923 15.8826 26.2786 15.6955 26.4045 15.5205C26.751 15.0388 27.2077 14.8155 27.4865 14.6533C27.7767 14.4845 28.0296 14.2898 28.2121 14.0547C28.2112 14.0558 28.2134 14.0536 28.216 14.043C28.2189 14.0309 28.2207 14.0127 28.2209 13.9863V13.9844C28.0693 13.8819 27.804 13.8201 27.0529 13.8193C26.8881 13.8192 26.739 13.8732 26.5802 13.9531C26.4977 13.9947 26.4242 14.0369 26.3371 14.084C26.2554 14.1281 26.1643 14.1747 26.0695 14.209C25.8795 14.2777 25.6855 14.3144 25.4933 14.3506C25.2972 14.3875 25.0925 14.4255 24.8547 14.4951C24.684 14.5451 24.5068 14.5844 24.341 14.6211C24.1718 14.6586 24.0132 14.6936 23.8644 14.7393C23.6933 14.7918 23.5183 14.8312 23.3547 14.8652C23.1873 14.9 23.0366 14.9289 22.8957 14.9639C22.5981 15.0378 22.2308 15.1925 21.8537 15.375C21.5199 15.5366 21.1402 15.6748 20.8078 15.7168C20.677 15.7333 20.5323 15.7688 20.3703 15.8115C20.2138 15.8528 20.0384 15.9015 19.8683 15.9346C19.5741 15.9918 19.2984 16.0655 18.9836 16.1406C18.586 16.2355 18.2226 16.2695 17.7453 16.3066C17.3084 16.3406 16.7525 16.3314 16.2707 16.2969C16.0291 16.2795 15.802 16.2553 15.6144 16.2266C15.4367 16.1993 15.2665 16.1634 15.1574 16.1133C15.0617 16.0693 14.939 15.9919 14.8644 15.8701C14.8225 15.8016 14.8058 15.7331 14.797 15.6836C14.7928 15.6593 14.7895 15.6358 14.7873 15.6182C14.7848 15.5988 14.7835 15.5851 14.7814 15.5723C14.7776 15.549 14.774 15.5425 14.7726 15.54C14.7719 15.5386 14.7663 15.5278 14.7414 15.5088C14.6315 15.4252 14.6099 15.2681 14.6935 15.1582C14.7772 15.0483 14.9342 15.0277 15.0441 15.1113C15.1174 15.1671 15.1731 15.2298 15.2121 15.3018C15.2506 15.3729 15.2663 15.4407 15.2746 15.4912C15.2785 15.5151 15.2813 15.5389 15.2834 15.5557C15.2857 15.5741 15.2874 15.5861 15.2892 15.5967C15.2929 15.6174 15.2946 15.6165 15.2902 15.6094C15.289 15.6074 15.293 15.6136 15.3078 15.625C15.3223 15.6362 15.3422 15.6485 15.3654 15.6592C15.4035 15.6767 15.5102 15.7047 15.6906 15.7324C15.8612 15.7586 16.0745 15.7812 16.3068 15.7979C16.7729 15.8313 17.302 15.839 17.7062 15.8076C18.1837 15.7705 18.5127 15.7392 18.8683 15.6543C19.1666 15.5831 19.4649 15.5042 19.7726 15.4443C19.922 15.4153 20.0755 15.3722 20.2424 15.3281C20.4037 15.2856 20.5777 15.2418 20.7453 15.2207C21.0017 15.1883 21.326 15.0748 21.6359 14.9248C22.0197 14.739 22.4248 14.5654 22.7746 14.4785C22.928 14.4404 23.0961 14.4077 23.2531 14.375C23.414 14.3415 23.5702 14.3071 23.7179 14.2617C23.8885 14.2093 24.0656 14.1698 24.2326 14.1328C24.403 14.0951 24.5627 14.0599 24.714 14.0156C24.9787 13.9382 25.2062 13.896 25.4006 13.8594C25.5986 13.822 25.7533 13.7912 25.8996 13.7383C25.9579 13.7172 26.0219 13.6856 26.0998 13.6436C26.1722 13.6044 26.2642 13.5525 26.3547 13.5068C26.5422 13.4123 26.774 13.3191 27.0529 13.3193ZM14.6427 15.3106C14.6427 15.2513 14.6254 15.1553 14.5949 14.962C14.5667 14.7833 14.5341 14.5526 14.5207 14.2706C14.5045 13.9311 14.7566 13.7202 14.9425 13.5958C15.0424 13.529 15.1523 13.4687 15.2443 13.4171C15.3419 13.3622 15.4194 13.3173 15.4777 13.2735C15.7552 13.0649 15.9979 12.8478 16.2775 12.6182C16.5489 12.3953 16.7974 12.1969 17.0959 11.9737C17.3689 11.7695 17.5781 11.6258 17.7111 11.5206C17.6206 11.3483 17.4372 11.2554 17.3087 11.2296C16.8746 11.1424 16.0683 11.148 15.4836 11.2081C15.2858 11.2284 15.1079 11.275 14.9308 11.3311C14.7644 11.3838 14.5663 11.4568 14.3849 11.5069C14.2082 11.5557 14.0194 11.5944 13.84 11.629C13.6569 11.6643 13.4864 11.6952 13.3322 11.7305C12.9225 11.8243 12.4053 11.8595 12.0002 11.8956C11.6079 11.9305 11.1113 11.933 10.675 11.9073C10.4566 11.8944 10.2491 11.874 10.0744 11.8458C9.9091 11.8191 9.74216 11.7815 9.62808 11.7198C9.28015 11.5317 9.00697 11.1962 8.798 10.9132C8.5878 10.6284 8.44469 10.35 8.29605 10.0401C8.19833 9.83636 8.17007 9.63716 8.1564 9.45222C8.14197 9.25686 8.14323 9.10004 8.11441 8.90339C8.11216 8.8881 8.11087 8.87197 8.11148 8.85652C8.12989 8.39264 8.17054 8.09443 8.21597 7.88875C8.26099 7.68508 8.31484 7.56383 8.33218 7.51179C8.3568 7.43793 8.38141 7.36508 8.4064 7.29011C8.4501 7.15935 8.591 7.0885 8.72183 7.13191C8.85282 7.17557 8.9237 7.31733 8.88003 7.44832C8.85506 7.52324 8.8314 7.59617 8.80679 7.67C8.77525 7.76462 8.74185 7.82693 8.70425 7.99714C8.66739 8.16409 8.6293 8.42775 8.61148 8.86531C8.63909 9.07198 8.64479 9.27106 8.65543 9.41511C8.66743 9.57758 8.68875 9.70327 8.74625 9.82332C8.8916 10.1264 9.01888 10.3705 9.20035 10.6163C9.40828 10.8979 9.62537 11.1501 9.86636 11.2803C9.89989 11.2983 9.99166 11.3265 10.1535 11.3526C10.3064 11.3773 10.4963 11.396 10.7043 11.4083C11.1207 11.4328 11.5927 11.4299 11.9562 11.3975C12.3839 11.3594 12.8539 11.3273 13.2209 11.2432C13.3862 11.2054 13.5705 11.1715 13.7453 11.1378C13.9236 11.1034 14.0959 11.0686 14.2521 11.0255C14.4262 10.9774 14.5767 10.9191 14.7804 10.8546C14.9732 10.7935 15.1874 10.7362 15.4328 10.711C16.0355 10.6491 16.9002 10.6375 17.4074 10.7393C17.6375 10.7856 18.0151 10.9567 18.1867 11.3526C18.2314 11.4561 18.2415 11.5664 18.2072 11.6719C18.1746 11.7721 18.1102 11.8429 18.0529 11.8897C17.9148 12.0025 17.6501 12.1831 17.3947 12.3741C17.1043 12.5913 16.8626 12.7841 16.5949 13.004C16.3356 13.217 16.0658 13.4563 15.7775 13.6729C15.6886 13.7397 15.5829 13.8001 15.4894 13.8526C15.3904 13.9083 15.3006 13.9575 15.2209 14.0108C15.0473 14.1269 15.0174 14.1987 15.0197 14.2471C15.032 14.5035 15.0613 14.714 15.088 14.8839C15.1125 15.0388 15.1427 15.1995 15.1427 15.3106C15.1427 15.4486 15.0308 15.5606 14.8927 15.5606C14.7549 15.5604 14.6428 15.4485 14.6427 15.3106ZM8.35624 7.45523C8.35628 7.383 8.37198 7.27584 8.37968 7.20816C8.38716 7.14231 8.38915 7.09024 8.38847 7.05191C8.38701 7.05121 8.38524 7.0507 8.38358 7.04995C8.36176 7.04005 8.33301 7.0294 8.29472 7.0187C8.27606 7.01349 8.25687 7.00839 8.23612 7.00308C8.21614 6.99797 8.19312 6.99227 8.17167 6.98648C8.10011 6.96718 8.01225 6.95778 7.88261 6.95034C7.7597 6.9433 7.59486 6.93811 7.40702 6.923C6.83095 6.87665 6.41177 6.92864 6.24101 6.94644C6.04466 6.96689 5.87282 6.97088 5.72245 6.97281C5.56818 6.97478 5.44733 6.97434 5.3328 6.98257C4.80012 7.02092 4.46066 7.0141 4.22441 6.98745C3.98189 6.96007 3.85086 6.91157 3.75858 6.88296C3.68364 6.85976 3.61538 6.85022 3.54081 6.84195C3.47251 6.83438 3.37544 6.82585 3.283 6.80288C3.18816 6.77929 3.09862 6.74187 3.02714 6.71206C2.95064 6.68017 2.88625 6.65408 2.81718 6.63491C2.63569 6.58455 2.50859 6.52149 2.408 6.46695C2.30027 6.40851 2.25702 6.38082 2.20097 6.36343C2.0853 6.32748 1.97696 6.26926 1.88651 6.21792C1.78854 6.1623 1.71233 6.11536 1.62968 6.07534C1.53853 6.03122 1.46003 5.97794 1.39335 5.92984C1.32173 5.87817 1.26977 5.83827 1.2078 5.798C1.11799 5.73962 1.03458 5.66519 0.959757 5.59683C0.880933 5.52481 0.808919 5.45642 0.725382 5.38687C0.552121 5.24266 0.444769 5.09845 0.340616 4.95132C0.215016 4.77389 0.148826 4.60981 0.101358 4.44741C0.0551768 4.28933 0.0285527 4.12532 0.0095613 3.94351C-0.00678929 3.78696 -0.00170903 3.60346 0.0212801 3.4396C0.032844 3.35729 0.0493156 3.27506 0.0720613 3.20034C0.0937867 3.12902 0.126093 3.04874 0.175577 2.98159C0.314562 2.79334 0.516727 2.69234 0.652139 2.61441C0.850226 2.5004 1.03483 2.39188 1.26933 2.36734C1.30763 2.36334 1.3541 2.34671 1.43925 2.31265C1.50988 2.28439 1.62087 2.23841 1.73808 2.22476C1.91735 2.20392 2.14953 2.19025 2.34843 2.17691C2.56198 2.16258 2.71942 2.14903 2.78398 2.13394C2.8974 2.1074 3.01572 2.0815 3.14237 2.05386C3.26948 2.02612 3.40637 1.99646 3.55937 1.96109C3.71033 1.92618 3.83454 1.91254 3.93534 1.90347C4.04197 1.89388 4.10159 1.89005 4.158 1.8771C4.26927 1.85158 4.37694 1.83575 4.47441 1.82144C4.57428 1.80677 4.66272 1.79345 4.75175 1.77456C4.91746 1.73938 5.04915 1.72851 5.15898 1.72183C5.27432 1.71481 5.34124 1.71338 5.41386 1.70132C5.61392 1.66811 5.80887 1.63486 5.97245 1.6105C6.20481 1.5759 6.41514 1.52601 6.81034 1.50113C6.98962 1.48985 7.15977 1.46965 7.33183 1.44937C7.50163 1.42935 7.67551 1.4091 7.85136 1.39956C8.22686 1.3792 8.71293 1.32368 8.96952 1.26773C9.07185 1.24541 9.16771 1.22991 9.25858 1.21499C9.35037 1.19993 9.43767 1.18582 9.533 1.16616C9.79047 1.11304 9.92193 1.10686 10.3582 1.08902C10.7688 1.07224 11.5457 1.08315 11.9559 1.08902C12.2358 1.09303 12.4315 1.10647 12.6297 1.12124C12.8262 1.1359 13.0249 1.15145 13.3191 1.16031C13.6174 1.16927 13.8832 1.21789 14.0125 1.23355L14.5691 1.30484L14.5984 1.30972C14.6537 1.32236 14.7645 1.33367 14.9305 1.34585C14.9389 1.34647 14.9475 1.34829 14.9559 1.34976C15.0746 1.37088 15.1455 1.41824 15.1892 1.44741C15.3041 1.524 15.3352 1.67921 15.2586 1.79409C15.1819 1.90877 15.0267 1.93996 14.9119 1.86343C14.8924 1.85043 14.8882 1.8476 14.8846 1.84585C14.8834 1.8453 14.8802 1.84449 14.8728 1.84292C14.7393 1.83294 14.6111 1.81902 14.5174 1.80093C14.3452 1.78294 14.1344 1.75272 13.9519 1.73062C13.7827 1.71011 13.573 1.66838 13.3045 1.66031C12.9979 1.65109 12.7892 1.63493 12.5926 1.62027C12.3974 1.60571 12.2131 1.5928 11.948 1.58902C11.5316 1.58306 10.7721 1.57294 10.3787 1.58902C9.93964 1.60697 9.84679 1.61163 9.63456 1.65542C9.52736 1.67754 9.42962 1.69339 9.33964 1.70816C9.24834 1.72314 9.16407 1.73679 9.07597 1.75601C8.78269 1.81996 8.26728 1.8775 7.8787 1.89859C7.72121 1.90712 7.56272 1.92613 7.39042 1.94644C7.22018 1.9665 7.03659 1.98788 6.84159 2.00015C6.47474 2.02325 6.31273 2.066 6.04667 2.10562C5.88817 2.12922 5.69768 2.16099 5.49589 2.19449C5.38949 2.21215 5.27979 2.21534 5.18925 2.22085C5.09331 2.22669 4.98886 2.23567 4.85624 2.26382C4.74828 2.28675 4.64215 2.30156 4.54667 2.31558C4.44856 2.32999 4.35904 2.34382 4.26933 2.36441C4.17068 2.38704 4.06604 2.3938 3.98026 2.40152C3.88852 2.40977 3.79091 2.42105 3.67265 2.44839C3.51614 2.48458 3.37609 2.51437 3.24882 2.54214C3.12121 2.56999 3.00718 2.59575 2.89823 2.62124C2.7838 2.64802 2.57533 2.66203 2.38261 2.67495C2.1752 2.68887 1.95951 2.70181 1.79569 2.72085C1.75744 2.72534 1.71139 2.74285 1.6248 2.77749C1.55254 2.8064 1.44052 2.85193 1.32108 2.86441C1.20979 2.87612 1.11656 2.92403 0.901163 3.048C0.726156 3.14873 0.639933 3.19447 0.577921 3.27847C0.577124 3.27971 0.573755 3.28483 0.569132 3.29507C0.563567 3.30743 0.557166 3.32423 0.550577 3.34585C0.537206 3.38975 0.525349 3.44611 0.516397 3.50991C0.498392 3.63854 0.495021 3.78059 0.506632 3.89175C0.523799 4.05604 0.546984 4.18752 0.581827 4.30679C0.618128 4.43103 0.663086 4.54114 0.748819 4.66226C0.84751 4.80167 0.923767 4.90138 1.04472 5.0021C1.14024 5.08161 1.22738 5.1635 1.29765 5.22769C1.37194 5.29556 1.42837 5.3443 1.48026 5.37808C1.55578 5.42715 1.63085 5.48455 1.68632 5.52456C1.74652 5.56798 1.79654 5.6005 1.84745 5.62515C1.94983 5.67471 2.05369 5.73799 2.13358 5.78335C2.22106 5.83301 2.28913 5.86716 2.34941 5.88589C2.4664 5.92219 2.57141 5.9859 2.64628 6.02652C2.72817 6.07094 2.81871 6.11578 2.95097 6.15249C3.05447 6.18121 3.14658 6.21974 3.21952 6.25015C3.29766 6.28272 3.35234 6.30468 3.40409 6.31753C3.45485 6.33012 3.5049 6.33472 3.59648 6.34488C3.68178 6.35434 3.78678 6.36815 3.90702 6.40542C4.00645 6.43625 4.09215 6.47014 4.28007 6.49136C4.4743 6.51329 4.78019 6.52073 5.29667 6.48355C5.43064 6.47391 5.57482 6.4746 5.71562 6.47281C5.86044 6.47096 6.01501 6.46654 6.18925 6.44839C6.36268 6.43031 6.82151 6.37462 7.44706 6.42495C7.62845 6.43955 7.77051 6.44328 7.91093 6.45132C8.04423 6.45896 8.17643 6.47034 8.30155 6.50406C8.35833 6.51938 8.48806 6.54736 8.59062 6.5939C8.68385 6.63625 8.81944 6.72232 8.86894 6.88589L8.88456 6.96109L8.88847 7.12027C8.886 7.17291 8.88053 7.22295 8.87577 7.2648C8.86418 7.36672 8.85628 7.42075 8.85624 7.45523C8.85624 7.59327 8.74427 7.70517 8.60624 7.70523C8.46817 7.70523 8.35624 7.5933 8.35624 7.45523ZM14.9453 1.37012C15.0374 1.37012 15.1707 1.37613 15.2998 1.38867C15.4223 1.40057 15.5669 1.42048 15.668 1.4541C15.8139 1.50274 15.9653 1.55345 16.208 1.65918C16.2609 1.68221 16.3182 1.69732 16.3906 1.71387C16.4568 1.72898 16.5483 1.74756 16.6348 1.77637C16.7784 1.82423 16.916 1.87016 17.082 1.91602C17.2413 1.96002 17.4 2.02007 17.5303 2.06348C17.6804 2.11352 17.8648 2.19133 18.0068 2.24609C18.15 2.30122 18.3424 2.34014 18.5137 2.37793C18.7651 2.43346 19.0292 2.57132 19.2363 2.67188C19.307 2.70616 19.3741 2.72831 19.4541 2.75488C19.53 2.78012 19.6241 2.81169 19.7178 2.8623C19.8428 2.92991 19.979 2.98767 20.1162 3.03906C20.1993 3.07019 20.2779 3.10378 20.3457 3.13281C20.4159 3.16287 20.4772 3.18867 20.5381 3.20898C20.7117 3.2669 20.8385 3.3244 20.9805 3.35742C21.1844 3.40483 21.3672 3.50192 21.5176 3.58594C21.6845 3.67919 21.8155 3.74349 21.9424 3.79102C22.0358 3.82602 22.121 3.86966 22.1914 3.90723C22.266 3.94707 22.3227 3.97861 22.3809 4.00293C22.5426 4.07059 22.6603 4.13065 22.8184 4.17969C22.9235 4.21236 23.0148 4.2601 23.0879 4.2998C23.1672 4.3429 23.2199 4.37289 23.2764 4.39648C23.428 4.4599 23.5901 4.52451 23.7246 4.56934C23.8632 4.61552 23.9563 4.64511 24.0166 4.66113C24.0277 4.66233 24.0432 4.66406 24.0752 4.66406C24.2133 4.66406 24.3252 4.776 24.3252 4.91406C24.3252 5.05213 24.2133 5.16406 24.0752 5.16406C24.0419 5.16406 23.9857 5.16443 23.9258 5.1543C23.9194 5.15321 23.9126 5.15197 23.9062 5.15039C23.8232 5.12956 23.7046 5.09001 23.5664 5.04395C23.4141 4.99318 23.2381 4.92327 23.083 4.8584C22.9961 4.82206 22.9109 4.77306 22.8486 4.73926C22.7801 4.70207 22.7254 4.67445 22.6699 4.65723C22.4818 4.59888 22.3132 4.51604 22.1885 4.46387C22.1033 4.42825 22.0211 4.38387 21.9551 4.34863C21.8849 4.31118 21.8267 4.28094 21.7676 4.25879C21.6078 4.19896 21.4518 4.12211 21.2734 4.02246C21.1252 3.93964 20.9962 3.87473 20.8672 3.84473C20.6985 3.80548 20.4927 3.72126 20.3799 3.68359C20.2974 3.65611 20.2191 3.62303 20.1484 3.59277C20.0756 3.56158 20.0108 3.53285 19.9414 3.50684C19.7919 3.45085 19.6328 3.38411 19.4805 3.30176C19.4309 3.27494 19.3769 3.25609 19.2969 3.22949C19.2208 3.20422 19.1231 3.1728 19.0186 3.12207C18.784 3.0082 18.5845 2.90575 18.4053 2.86621C18.2537 2.83279 18.0137 2.7852 17.8262 2.71289C17.6573 2.64777 17.5087 2.58264 17.3721 2.53711C17.2158 2.485 17.0922 2.43794 16.9492 2.39844C16.7691 2.34869 16.6198 2.29871 16.4766 2.25098C16.42 2.23213 16.3632 2.22036 16.2793 2.20117C16.2013 2.18335 16.1056 2.15981 16.0078 2.11719C15.7856 2.02039 15.6506 1.97564 15.5098 1.92871C15.4673 1.91466 15.3734 1.89853 15.252 1.88672C15.1364 1.8755 15.019 1.87012 14.9453 1.87012C14.8072 1.87012 14.6953 1.75819 14.6953 1.62012C14.6953 1.48205 14.8072 1.37012 14.9453 1.37012ZM25.3018 0.01769C25.5213 -0.0144769 25.6879 -7.98032e-05 25.8311 0.0391744C25.9534 0.0727601 26.083 0.137201 26.1357 0.158315C26.2107 0.188278 26.2932 0.212289 26.3848 0.23644C26.4711 0.259221 26.5745 0.284441 26.665 0.314565C26.763 0.347147 26.8485 0.380913 26.9248 0.412221C27.0031 0.444345 27.0662 0.471245 27.1328 0.496206C27.3027 0.559837 27.4496 0.634937 27.6006 0.722768C27.7605 0.815823 27.918 0.911095 28.1426 1.02648C28.2593 1.07686 28.3606 1.15113 28.4551 1.23839C28.4825 1.26196 28.5578 1.31564 28.6201 1.41808C28.6918 1.5361 28.6542 1.69017 28.5361 1.76183C28.4181 1.83346 28.264 1.79586 28.1924 1.67785C28.1865 1.66818 28.1831 1.66355 28.1787 1.65929C28.1754 1.65606 28.1703 1.65247 28.1621 1.64562C28.156 1.64051 28.1415 1.62821 28.1299 1.61828L28.1221 1.61144C28.0456 1.54007 27.9873 1.50194 27.9365 1.48156C27.9293 1.47868 27.9219 1.47533 27.915 1.47179C27.6755 1.34878 27.5044 1.24542 27.3496 1.15539C27.214 1.07651 27.0933 1.01566 26.958 0.964956C26.8815 0.936289 26.8047 0.902981 26.7344 0.874135C26.662 0.844419 26.5889 0.815482 26.5068 0.788198C26.436 0.764664 26.3573 0.746075 26.2578 0.719838C26.1636 0.694989 26.0556 0.664332 25.9502 0.622182C25.8241 0.571729 25.7896 0.546434 25.6992 0.521596C25.6296 0.502487 25.5328 0.489537 25.374 0.512807C25.1937 0.53927 25.0312 0.585486 24.8047 0.663198C24.6962 0.700401 24.5964 0.733509 24.5049 0.771596C24.4123 0.810135 24.3469 0.84649 24.3057 0.880971C24.1665 0.997411 24.0578 1.11705 24.042 1.26964C24.0221 1.46302 24.0091 1.71209 24.0078 1.93566C24.0064 2.17126 24.0189 2.34182 24.0352 2.40246C24.084 2.58346 24.1027 2.68915 24.1572 2.79015C24.2061 2.88051 24.241 2.98159 24.2676 3.05187C24.2973 3.13038 24.3225 3.1885 24.3545 3.23644C24.455 3.38727 24.5403 3.55337 24.6133 3.67882C24.6359 3.71611 24.9838 4.03844 24.8447 4.51378C24.8207 4.596 24.7944 4.69729 24.7637 4.78429C24.7315 4.87525 24.6868 4.97584 24.6143 5.06554C24.5749 5.1142 24.4882 5.2036 24.3506 5.22179C24.2767 5.23151 24.2105 5.22596 24.1592 5.21984C24.1341 5.21684 24.1096 5.21384 24.0908 5.21105C24.0706 5.20805 24.0556 5.20565 24.042 5.20421C23.9555 5.19518 23.8636 5.18351 23.7949 5.17589C23.7188 5.16746 23.6699 5.16417 23.6445 5.16417C23.5066 5.16417 23.3948 5.05205 23.3945 4.91417C23.3945 4.7761 23.5065 4.66417 23.6445 4.66417C23.7022 4.66417 23.7783 4.67191 23.8496 4.6798C23.9283 4.68852 24.0072 4.6981 24.0938 4.70714C24.1194 4.70983 24.1441 4.71297 24.1641 4.71593C24.1856 4.71914 24.2023 4.72179 24.2188 4.72374C24.2269 4.72472 24.2345 4.72323 24.2412 4.72374C24.2568 4.6984 24.2751 4.66586 24.292 4.61828C24.3167 4.5484 24.3353 4.47543 24.3652 4.37316C24.3942 4.27415 24.3759 4.21836 24.3496 4.17003C24.333 4.1396 24.3116 4.10937 24.2812 4.07042C24.2562 4.03823 24.2123 3.98417 24.1807 3.9298C24.0869 3.76855 24.0288 3.64939 23.9385 3.51378C23.8727 3.41504 23.8307 3.31125 23.7998 3.2296C23.7659 3.13995 23.7462 3.08118 23.7178 3.02843C23.6268 2.86015 23.5876 2.66265 23.5527 2.53331C23.5159 2.39689 23.5065 2.158 23.5078 1.93273C23.5092 1.69506 23.5232 1.43007 23.5449 1.21886C23.5825 0.853104 23.8369 0.620531 23.9844 0.497182C24.0829 0.414733 24.2031 0.356234 24.3125 0.310659C24.4228 0.264744 24.542 0.225025 24.6426 0.190542C24.8809 0.108783 25.0767 0.0506773 25.3018 0.01769ZM28.2949 1.28418C28.364 1.28418 28.4657 1.29139 28.5713 1.31738C28.6728 1.34244 28.8065 1.39204 28.9102 1.49512C29.0132 1.59765 29.1224 1.67637 29.2578 1.76074C29.3524 1.81964 29.4333 1.88365 29.5049 1.94141C29.58 2.00201 29.6376 2.05069 29.7012 2.09766C29.8586 2.21392 29.9934 2.34983 30.126 2.50098C30.203 2.5888 30.2758 2.64975 30.3496 2.70703C30.4181 2.76017 30.5124 2.82709 30.5947 2.90234C30.7633 3.05665 30.9085 3.22962 31.0146 3.34668C31.0586 3.3951 31.1084 3.43852 31.1787 3.49512C31.2466 3.54977 31.3379 3.6202 31.4434 3.70996C31.5331 3.78641 31.6112 3.87036 31.6787 3.94531C31.75 4.02455 31.8041 4.08803 31.8613 4.14551C31.9334 4.21788 32.0001 4.29778 32.0557 4.36328C32.1147 4.43285 32.1641 4.48907 32.2139 4.53418C32.296 4.60867 32.407 4.72684 32.5225 4.85059C32.6416 4.97823 32.771 5.11865 32.8984 5.24902C33.0471 5.40112 33.1896 5.55739 33.4619 5.84766C33.6276 6.02433 33.7643 6.22371 33.8955 6.41406C34.0205 6.59542 34.1252 6.70888 34.2373 6.81055C34.3989 6.95718 34.5403 7.17123 34.6533 7.34961C34.6858 7.40088 34.731 7.44913 34.7998 7.52441C34.8638 7.59447 34.9443 7.68407 35.0146 7.79492C35.1312 7.9784 35.2248 8.10016 35.3359 8.26367C35.4025 8.36151 35.4605 8.45407 35.5127 8.53809C35.5657 8.62351 35.6109 8.69756 35.6562 8.76562C35.7069 8.84164 35.7621 8.9202 35.8184 9C35.8739 9.07877 35.9311 9.15978 35.9814 9.23535C36.075 9.37572 36.1735 9.50628 36.2891 9.65137C36.3727 9.74992 36.4508 9.84128 36.5127 9.91797C36.5624 9.97961 36.611 10.0457 36.6455 10.1025L36.8174 10.2812C36.915 10.3789 36.915 10.5371 36.8174 10.6348C36.7197 10.7324 36.5615 10.7324 36.4639 10.6348C36.352 10.5229 36.2838 10.4558 36.2383 10.3916C36.2323 10.3832 36.2266 10.3743 36.2217 10.3652C36.2134 10.3498 36.1844 10.3084 36.123 10.2324C36.0658 10.1615 35.9931 10.0747 35.9082 9.97461L35.9033 9.96973C35.7808 9.81607 35.671 9.67109 35.5654 9.5127C35.5194 9.44358 35.4667 9.36835 35.4102 9.28809C35.3544 9.20898 35.2951 9.1253 35.2402 9.04297C35.1892 8.96637 35.1386 8.88339 35.0879 8.80176C35.0363 8.71867 34.9822 8.63371 34.9219 8.54492C34.8282 8.40721 34.713 8.25181 34.5928 8.0625C34.5485 7.99273 34.4952 7.93286 34.4307 7.8623C34.3711 7.79718 34.2925 7.71348 34.2314 7.61719C34.1152 7.43368 34.006 7.2756 33.9014 7.18066C33.7606 7.05295 33.6311 6.91015 33.4844 6.69727C33.3497 6.50185 33.2333 6.33509 33.0977 6.19043C32.8174 5.89169 32.6852 5.74608 32.541 5.59863C32.4083 5.46292 32.2738 5.3163 32.1572 5.19141C32.0372 5.06274 31.9413 4.96182 31.8779 4.9043C31.8013 4.83478 31.733 4.75605 31.6748 4.6875C31.6132 4.61491 31.5625 4.55294 31.5078 4.49805C31.4387 4.42863 31.368 4.34638 31.3076 4.2793C31.2435 4.20805 31.1827 4.14497 31.1191 4.09082C31.0201 4.0066 30.9421 3.94652 30.8643 3.88379C30.7889 3.82309 30.7152 3.7605 30.6445 3.68262C30.5213 3.54679 30.4027 3.405 30.2568 3.27148C30.1946 3.21459 30.1362 3.17483 30.043 3.10254C29.9549 3.03427 29.8556 2.95048 29.75 2.83008C29.6295 2.69277 29.5214 2.58648 29.4043 2.5C29.3292 2.44455 29.2546 2.38102 29.1914 2.33008C29.1247 2.27632 29.0618 2.22828 28.9932 2.18555C28.8392 2.08964 28.6966 1.98794 28.5576 1.84961C28.5465 1.83858 28.5145 1.81814 28.4521 1.80273C28.3939 1.78836 28.3334 1.78418 28.2949 1.78418C28.1569 1.78418 28.0449 1.67225 28.0449 1.53418C28.0449 1.39611 28.1569 1.28418 28.2949 1.28418ZM36.393 10.0669C36.5378 10.0909 36.727 10.2036 36.9106 10.3803C37.0042 10.4706 37.0695 10.5759 37.1196 10.6655C37.1778 10.7696 37.2051 10.8293 37.2514 10.9048C37.294 10.974 37.339 11.0428 37.3872 11.1147C37.4346 11.1855 37.4849 11.261 37.5327 11.3374C37.6176 11.4731 37.733 11.6514 37.8315 11.8178C37.8859 11.9098 37.931 11.995 37.9712 12.0718C38.012 12.1497 38.0469 12.2174 38.0854 12.2837C38.1382 12.3744 38.1827 12.4737 38.2221 12.5639C38.2635 12.6584 38.3005 12.7458 38.3442 12.8305C38.4271 12.9913 38.4906 13.1547 38.561 13.312C38.6361 13.4797 38.7084 13.6639 38.7612 13.8618C38.7819 13.9391 38.8104 14.0148 38.8432 14.0991C38.8745 14.1793 38.9121 14.2736 38.9399 14.3677C38.9909 14.5398 39.0346 14.6818 39.0815 14.8227C39.1029 14.8869 39.1294 14.9486 39.1636 15.0356C39.1963 15.1191 39.2327 15.2163 39.2661 15.3325C39.2977 15.4426 39.3436 15.5592 39.3911 15.6723C39.435 15.7768 39.487 15.8947 39.5151 15.979C39.5645 16.1271 39.6156 16.3047 39.6616 16.4546C39.706 16.5992 39.7593 16.7717 39.8032 16.9409C39.851 17.1253 39.89 17.3542 39.9204 17.4917C39.9415 17.5874 39.9603 17.7107 39.978 17.8384L40.0259 18.2124L40.0278 18.2319C40.0307 18.2907 40.035 18.3481 40.0405 18.4038L40.061 18.5659L40.063 18.5815C40.0647 18.6004 40.0667 18.6239 40.0678 18.6382C40.0691 18.6548 40.07 18.669 40.0718 18.6821C40.0752 18.7081 40.0806 18.7275 40.0874 18.7436C40.1408 18.8709 40.0807 19.0172 39.9536 19.0708C39.8263 19.1243 39.6799 19.0643 39.6264 18.937C39.5715 18.8059 39.5695 18.6687 39.5659 18.6284C39.5485 18.5149 39.5362 18.3962 39.5298 18.2749C39.4987 18.0305 39.468 17.7618 39.4321 17.5991C39.3906 17.4108 39.367 17.2477 39.3198 17.0659C39.2792 16.9093 39.2292 16.7479 39.1841 16.6011C39.1337 16.437 39.0885 16.2784 39.0415 16.1372C39.0214 16.0769 38.9826 15.9915 38.9302 15.8667C38.8813 15.7505 38.8259 15.6104 38.7856 15.4702C38.7585 15.3758 38.7281 15.2956 38.6977 15.2182C38.6687 15.1444 38.6347 15.0615 38.6079 14.9809C38.5585 14.8326 38.5124 14.6847 38.4604 14.5093C38.44 14.4403 38.4121 14.3697 38.3774 14.2807C38.3444 14.196 38.3063 14.0975 38.2778 13.9907C38.2342 13.8275 38.1734 13.67 38.105 13.5171C38.019 13.3251 37.9754 13.2054 37.8999 13.0591C37.8473 12.9571 37.8027 12.8532 37.7641 12.7651C37.7237 12.6728 37.6894 12.5976 37.6528 12.5346C37.6073 12.4564 37.5668 12.3777 37.5278 12.3032C37.488 12.2272 37.4481 12.1526 37.4009 12.0727C37.3065 11.9133 37.1984 11.7452 37.1089 11.602C37.0662 11.5338 37.0208 11.4658 36.9721 11.393C36.9242 11.3215 36.8731 11.2452 36.8247 11.1665C36.7747 11.0851 36.7178 10.9718 36.6831 10.9096C36.6402 10.833 36.6031 10.7793 36.563 10.7407C36.4908 10.6712 36.4277 10.6243 36.3794 10.5952C36.3397 10.5713 36.3166 10.563 36.311 10.561C36.1748 10.5384 36.0824 10.4091 36.105 10.2729C36.1276 10.1367 36.2568 10.0443 36.393 10.0669ZM39.7129 32.9665C39.7129 31.9848 39.7126 31.0283 39.7188 30.531V30.5261C39.7369 29.9943 39.7493 29.7619 39.7793 28.9958C39.7853 28.4401 39.7956 27.439 39.7793 26.9167C39.7748 26.7701 39.7722 26.6444 39.7705 26.5359C39.7689 26.4265 39.7683 26.3369 39.7657 26.2585C39.7603 26.1015 39.7486 26.0085 39.7237 25.9275C39.7129 25.8923 39.7079 25.8516 39.7051 25.8269C39.7016 25.7954 39.6991 25.7571 39.6963 25.7136C39.6908 25.6259 39.686 25.5095 39.6827 25.3699C39.6759 25.09 39.6738 24.7106 39.6827 24.2693C39.6858 24.1133 39.6909 24.0247 39.6954 23.9324C39.6998 23.842 39.7041 23.7447 39.7071 23.5671C39.713 23.2079 39.7132 22.5433 39.7071 22.1941C39.7041 22.0216 39.6998 21.9274 39.6954 21.8259C39.6908 21.7224 39.6857 21.6123 39.6827 21.4128C39.6765 21.0039 39.6869 20.298 39.6709 19.9119C39.6617 19.69 39.6616 19.5227 39.6592 19.3884C39.6568 19.2531 39.6518 19.1507 39.6368 19.0417C39.6214 18.9308 39.6092 18.8445 39.5957 18.782C39.5911 18.7606 39.5877 18.7458 39.585 18.7371C39.519 18.6506 39.5139 18.5288 39.5821 18.4373C39.6646 18.3267 39.821 18.3041 39.9317 18.3865C40.0021 18.439 40.0336 18.5118 40.0469 18.5457C40.0636 18.5882 40.0759 18.6343 40.085 18.6765C40.1031 18.7609 40.1173 18.8671 40.1319 18.9724C40.1512 19.112 40.1557 19.2392 40.1582 19.3796C40.1608 19.5213 40.1611 19.6774 40.17 19.8914C40.1861 20.2812 40.1769 21.03 40.1827 21.406C40.1856 21.5987 40.19 21.7031 40.1944 21.8035C40.1989 21.906 40.2039 22.0059 40.2071 22.1853C40.2133 22.5405 40.2131 23.2114 40.2071 23.5759C40.204 23.7601 40.199 23.8627 40.1944 23.9568C40.1899 24.0487 40.1856 24.1308 40.1827 24.279C40.1739 24.714 40.1751 25.0857 40.1817 25.3572C40.185 25.493 40.1903 25.6025 40.1954 25.6814C40.1979 25.7209 40.1999 25.7513 40.2022 25.7722C40.2037 25.7855 40.205 25.7917 40.2051 25.7927L40.2012 25.781C40.246 25.9267 40.2589 26.0721 40.2647 26.241C40.2676 26.3255 40.269 26.4211 40.2705 26.5281C40.2722 26.636 40.2749 26.7585 40.2793 26.9011C40.2961 27.4387 40.2853 28.4591 40.2793 29.0085V29.0154C40.2491 29.7858 40.2368 30.0125 40.2188 30.5427C40.2127 31.0375 40.2129 31.9863 40.2129 32.9665C40.2129 33.1046 40.101 33.2165 39.9629 33.2165C39.8249 33.2165 39.713 33.1046 39.7129 32.9665ZM38.7297 32.4045C38.8607 32.3608 39.0024 32.4317 39.0461 32.5627C39.0584 32.5995 39.0701 32.6358 39.0822 32.6721C39.1152 32.7711 39.1433 32.8511 39.1769 32.9201C39.2393 32.917 39.2966 32.9075 39.3527 32.8996C39.4876 32.8806 39.6532 32.8657 39.7912 32.8537C39.9382 32.8409 40.0415 32.833 40.0744 32.8283C40.2111 32.8089 40.3372 32.9036 40.3566 33.0402C40.3761 33.1769 40.2813 33.303 40.1447 33.3225C40.0938 33.3297 39.9633 33.3405 39.8342 33.3518C39.6961 33.3638 39.5424 33.3778 39.4221 33.3947C39.3602 33.4034 39.1933 33.4368 39.0031 33.4143C38.9339 33.406 38.8712 33.3691 38.8303 33.3127C38.7131 33.1505 38.6539 32.9691 38.6076 32.8303C38.5955 32.794 38.5838 32.7577 38.5715 32.7209C38.5278 32.5899 38.5987 32.4481 38.7297 32.4045ZM10.0811 4.09277L10.5254 4.10547L10.543 4.10742C10.6941 4.12816 10.8545 4.14623 11.0312 4.16016L11.6191 4.19141L11.6602 4.19629C11.9072 4.24592 12.1063 4.27059 12.3271 4.30859C12.5413 4.34544 12.7562 4.39187 12.9873 4.47949C13.5276 4.68442 13.9045 4.84604 14.3984 4.95605C14.9183 5.07182 15.2854 5.17157 15.6572 5.32715C15.8591 5.41156 16.0552 5.4619 16.25 5.50586C16.4376 5.54819 16.6434 5.58817 16.8271 5.64941C16.9897 5.70358 17.1687 5.74995 17.3721 5.80371C17.5723 5.85665 17.7914 5.91603 18.0176 5.99414C18.2192 6.06377 18.5045 6.1399 18.8193 6.2334C19.1221 6.32332 19.4485 6.42853 19.6934 6.55078C19.8418 6.6249 20.1089 6.71107 20.4395 6.80859C20.7587 6.90278 21.1281 7.00548 21.4482 7.10938C21.9873 7.28431 22.6682 7.56798 23.0186 7.69922C23.3555 7.82541 23.7084 7.94708 24.1338 8.13477C24.3185 8.21627 24.5006 8.30968 24.6768 8.39551C24.8565 8.48308 25.0408 8.56814 25.249 8.64355C25.7788 8.83541 26.2956 9.07835 26.6494 9.25586C26.8508 9.3569 27.0636 9.49304 27.2881 9.64062C27.516 9.79043 27.7611 9.9552 28.042 10.125C28.3163 10.2909 28.5937 10.4656 28.8584 10.6328C29.1239 10.8006 29.376 10.9603 29.6025 11.0986C30.0433 11.3678 30.4131 11.5803 30.8691 11.8389C31.2948 12.0802 31.6874 12.2773 32.3057 12.7783C32.6813 13.0827 32.9564 13.3127 33.3779 13.6504C33.7363 13.9374 34.1457 14.2659 34.5068 14.5508C34.6841 14.6906 34.8457 14.8415 34.9863 14.9629C35.1325 15.0891 35.2717 15.1973 35.4326 15.2861C35.8497 15.5165 36.3085 15.7925 36.6016 16.3135C36.8082 16.6809 37.0065 17.0476 37.2344 17.3213C37.5033 17.6442 37.8913 18.0348 38.0811 18.6045C38.229 19.0487 38.3213 19.3782 38.4492 19.71C38.5167 19.885 38.6052 20.0692 38.6875 20.2373C38.7641 20.3937 38.8466 20.5579 38.8818 20.6641C38.9253 20.7951 38.8546 20.9369 38.7236 20.9805C38.5926 21.0239 38.4507 20.9523 38.4072 20.8213C38.3857 20.7566 38.3258 20.6359 38.2383 20.457C38.1563 20.2896 38.0587 20.0876 37.9824 19.8896C37.8495 19.5449 37.7445 19.1772 37.6064 18.7627C37.4545 18.3065 37.1545 18.0056 36.8506 17.6406C36.5863 17.3232 36.3621 16.9073 36.166 16.5586C35.948 16.171 35.6035 15.9527 35.1904 15.7246C34.9847 15.611 34.816 15.4753 34.6602 15.3408C34.4989 15.2016 34.3639 15.0748 34.1973 14.9434C33.8344 14.6571 33.4231 14.3275 33.0654 14.041C32.6445 13.7038 32.3584 13.4645 31.9912 13.167C31.4108 12.6966 31.056 12.5189 30.623 12.2734C30.1657 12.0141 29.7897 11.7989 29.3418 11.5254C29.1111 11.3845 28.8547 11.2224 28.5908 11.0557C28.3262 10.8885 28.0528 10.7157 27.7832 10.5527C27.4921 10.3767 27.2359 10.2053 27.0127 10.0586C26.7864 9.90983 26.5974 9.78923 26.4258 9.70312C26.0804 9.52982 25.583 9.29577 25.0791 9.11328C24.8465 9.02906 24.644 8.93535 24.458 8.84473C24.2686 8.75245 24.1058 8.66821 23.9326 8.5918C23.5246 8.41174 23.1937 8.29939 22.8428 8.16797C22.4605 8.02478 21.8211 7.75602 21.2939 7.58496C20.9821 7.48377 20.6289 7.38577 20.2979 7.28809C19.9778 7.19367 19.6652 7.09568 19.4697 6.99805C19.2685 6.89761 18.9807 6.80317 18.6768 6.71289C18.3844 6.62608 18.0694 6.541 17.8545 6.4668C17.6473 6.39524 17.4436 6.33984 17.2441 6.28711C17.048 6.23527 16.8502 6.18443 16.6689 6.12402C16.5164 6.07317 16.3505 6.04172 16.1396 5.99414C15.936 5.94819 15.7063 5.89046 15.4639 5.78906C15.1326 5.65048 14.7997 5.55784 14.29 5.44434C13.7512 5.32434 13.3289 5.14421 12.8096 4.94727C12.6215 4.87599 12.4427 4.8361 12.2432 4.80176C12.0559 4.76954 11.8285 4.73867 11.584 4.69043C11.1477 4.67552 10.798 4.64686 10.4805 4.60352C10.2614 4.59035 9.90941 4.59082 9.5332 4.59082C9.39513 4.59082 9.2832 4.47889 9.2832 4.34082C9.2832 4.20275 9.39513 4.09082 9.5332 4.09082C9.72108 4.09082 9.90968 4.0909 10.0811 4.09277Z" style="fill:#f5eee0"></path></g></g></symbol>
<symbol id="rbOrnPisk" viewBox="0 0 240 340"><use href="#rbLeafArc"></use></symbol>
<symbol id="rbMark0" viewBox="0 0 240 340">
<path d="M22 332V122A98 98 0 0 1 218 122V332Z" style="fill:none;stroke:url(#rbGold);stroke-width:5;stroke-linejoin:round"></path>
<path d="M34 320V124A86 86 0 0 1 206 124V320Z" style="fill:none;stroke:url(#rbGold);stroke-width:1.5"></path>
<path d="M120 4C127 13 127 20 120 25C113 20 113 13 120 4Z" style="fill:url(#rbGold)"></path>
<path d="M34 288H206" style="stroke:url(#rbGold);stroke-width:2"></path>
<path d="M98 304C110 295 130 295 142 304C130 313 110 313 98 304Z" style="fill:url(#rbGold)"></path><path d="M60 304H90M150 304H180" style="stroke:url(#rbGold);stroke-width:1.5;stroke-linecap:round"></path>
<path d="M120 288C122 250 117 214 120 182" style="fill:none;stroke:#f5eee0;stroke-width:2.4;stroke-linecap:round"></path>
<use href="#rbPuff" x="70" y="90" width="100" height="100"></use>
<use href="#rbSeed" x="156" y="64" width="11" height="16" transform="rotate(36 161 72)"></use><use href="#rbSeed" x="172" y="84" width="8" height="12" transform="rotate(62 176 90)" style="opacity:0.7"></use>
</symbol>
<symbol id="rbMark" viewBox="0 0 240 340"><use href="#rbMark0"></use><use href="#rbOrnPisk"></use></symbol>
<symbol id="rbWord" viewBox="-5 -751 4939 1029"><path d="M565 -18Q565 -23 574.5 -25Q584 -27 596 -31.5Q608 -36 617.5 -45Q627 -54 627 -72Q627 -100 617 -128Q607 -156 598 -181Q596 -185 592 -196Q588 -207 582.5 -220Q577 -233 572 -244.5Q567 -256 565 -260Q546 -303 523.5 -324.5Q501 -346 457 -358Q450 -360 431.5 -364Q413 -368 409 -369L397 -369Q375 -369 343.5 -365.5Q312 -362 283 -351.5Q254 -341 233.5 -321.5Q213 -302 213 -271L214 -257Q214 -253 218 -253L219 -253Q226 -253 231 -255Q236 -257 243 -257L257 -257Q264 -252 270 -243.5Q276 -235 276 -226Q276 -211 263 -203Q250 -195 238 -195Q224 -195 215 -202.5Q206 -210 201 -220.5Q196 -231 194 -243.5Q192 -256 192 -266Q192 -294 205.5 -316.5Q219 -339 240.5 -355Q262 -371 288.5 -380Q315 -389 341 -391Q350 -391 371.5 -392Q393 -393 417 -394Q441 -395 462.5 -396Q484 -397 493 -398Q566 -404 609.5 -435Q653 -466 653 -541Q653 -546 652 -548L652 -579Q643 -615 622 -636.5Q601 -658 573.5 -669.5Q546 -681 513 -685Q480 -689 447 -689Q441 -689 438 -688L359 -688Q354 -688 343.5 -688Q333 -688 321 -688Q309 -688 298 -687.5Q287 -687 283 -687Q266 -686 249 -682.5Q232 -679 217.5 -671.5Q203 -664 193.5 -651.5Q184 -639 181 -619Q181 -608 179.5 -581Q178 -554 177 -524Q176 -494 175 -467.5Q174 -441 174 -430L174 -97Q178 -76 181.5 -65.5Q185 -55 191 -49.5Q197 -44 207.5 -40Q218 -36 236 -29Q240 -27 240 -20Q240 -18 239.5 -15Q239 -12 236 -10L101 -10Q82 -10 61.5 -10.5Q41 -11 22 -14Q15 -15 15 -21Q15 -27 25 -31Q35 -35 47.5 -41Q60 -47 71 -56.5Q82 -66 84 -83Q94 -158 95 -234Q96 -310 101 -386L91 -608Q90 -626 82.5 -646Q75 -666 58 -677Q55 -678 48.5 -679.5Q42 -681 35.5 -683.5Q29 -686 23.5 -689.5Q18 -693 18 -700Q18 -701 18.5 -701.5Q19 -702 19 -702Q19 -703 20.5 -704.5Q22 -706 22 -706L489 -706Q530 -706 576.5 -698.5Q623 -691 662 -672Q701 -653 727 -619.5Q753 -586 753 -535Q753 -488 727 -459.5Q701 -431 663 -414.5Q625 -398 581.5 -391Q538 -384 504 -380L503 -376Q503 -370 516 -366Q529 -362 545 -359Q561 -356 576 -355Q591 -354 594 -354Q610 -354 626 -358Q642 -362 658 -362Q663 -362 666.5 -361Q670 -360 670 -354Q670 -348 657.5 -335Q645 -322 645 -296Q645 -276 653 -255Q661 -234 666 -217L671 -202Q677 -182 684.5 -159Q692 -136 702 -114.5Q712 -93 724.5 -73.5Q737 -54 753 -40Q757 -37 765 -34.5Q773 -32 781 -29.5Q789 -27 795 -24Q801 -21 801 -16Q801 -12 794.5 -9.5Q788 -7 786 -7L572 -7Q568 -7 566.5 -11Q565 -15 565 -18ZM831 -139Q831 -178 849.5 -207Q868 -236 897.5 -255Q927 -274 962.5 -283.5Q998 -293 1033 -293Q1071 -293 1098.5 -284.5Q1126 -276 1161 -260L1165 -264L1165 -266Q1165 -272 1157 -287.5Q1149 -303 1146 -307Q1126 -342 1103.5 -364.5Q1081 -387 1039 -387Q1014 -387 994 -380.5Q974 -374 951 -362Q940 -355 932.5 -349Q925 -343 912 -343L912 -358Q912 -358 921.5 -369.5Q931 -381 937 -387Q938 -388 944 -394.5Q950 -401 955 -401L1085 -401Q1097 -401 1114 -392.5Q1131 -384 1139 -380Q1182 -355 1210 -316Q1238 -277 1255 -232Q1256 -230 1259 -221Q1262 -212 1265.5 -201Q1269 -190 1272.5 -181Q1276 -172 1277 -170Q1277 -168 1279.5 -163Q1282 -158 1284 -156L1334 -18Q1334 -18 1334.5 -16Q1335 -14 1335 -13Q1335 -5 1331 0L1309 3L1302 3Q1297 3 1287.5 1.5Q1278 0 1277 0Q1272 -2 1268 -10.5Q1264 -19 1262 -22Q1248 -56 1232.5 -100Q1217 -144 1194.5 -183Q1172 -222 1139.5 -248.5Q1107 -275 1060 -275Q992 -275 951.5 -240.5Q911 -206 911 -137Q911 -88 941.5 -58Q972 -28 1013 -11L1081 -11Q1102 -11 1123 -26.5Q1144 -42 1160.5 -60Q1177 -78 1187.5 -93.5Q1198 -109 1199 -109Q1204 -109 1204.5 -105Q1205 -101 1205 -97Q1205 -86 1201.5 -81Q1198 -76 1190 -62Q1166 -20 1122 -6.5Q1078 7 1034 7Q1000 7 963.5 -1Q927 -9 898 -26Q869 -43 850 -71Q831 -99 831 -139ZM1365 -203Q1365 -244 1380 -284Q1395 -324 1422 -356Q1449 -388 1486 -408Q1523 -428 1566 -428Q1593 -428 1619.5 -423Q1646 -418 1669 -402Q1671 -400 1685.5 -389Q1700 -378 1705 -374L1716 -363Q1716 -363 1716.5 -362.5Q1717 -362 1718 -362L1720 -363Q1721 -363 1722 -364.5Q1723 -366 1723 -366L1723 -587Q1723 -608 1714.5 -634.5Q1706 -661 1684 -670Q1680 -672 1667 -674Q1654 -676 1654 -683L1658 -692L1678 -692Q1700 -692 1721.5 -686Q1743 -680 1764.5 -672.5Q1786 -665 1808 -659Q1830 -653 1854 -652L1854 -647Q1854 -641 1847 -637.5Q1840 -634 1831 -630Q1822 -626 1813.5 -620Q1805 -614 1803 -602Q1802 -598 1801 -586.5Q1800 -575 1799 -573Q1797 -515 1796.5 -463.5Q1796 -412 1796 -360L1796 -80Q1803 -53 1816.5 -39.5Q1830 -26 1857 -19L1857 -6L1743 0Q1740 0 1731 -2Q1722 -4 1722 -8L1722 -88L1716 -91Q1684 -57 1643.5 -27Q1603 3 1553 3Q1511 3 1476 -14Q1441 -31 1416.5 -59.5Q1392 -88 1378.5 -125.5Q1365 -163 1365 -203ZM1426 -260Q1426 -223 1438.5 -186Q1451 -149 1473.5 -119Q1496 -89 1528.5 -70Q1561 -51 1600 -51Q1642 -51 1666.5 -69Q1691 -87 1703.5 -115Q1716 -143 1719.5 -177.5Q1723 -212 1723 -246L1716 -312Q1710 -322 1706 -333Q1702 -344 1694 -355Q1677 -382 1642 -394.5Q1607 -407 1577 -407Q1546 -407 1518.5 -396.5Q1491 -386 1470.5 -366.5Q1450 -347 1438 -320Q1426 -293 1426 -260ZM1966 -34Q1952 -34 1939 -29.5Q1926 -25 1912 -25Q1912 -38 1918.5 -53Q1925 -68 1927 -80Q1928 -84 1929.5 -101Q1931 -118 1934 -124L1934 -266L1930 -268L1930 -543Q1928 -555 1924 -573.5Q1920 -592 1909 -601Q1904 -604 1895.5 -608Q1887 -612 1887 -619L1887 -622Q1923 -629 1953.5 -641.5Q1984 -654 2017 -671L2028 -677Q2033 -679 2038.5 -679.5Q2044 -680 2049 -680L2079 -680L2082 -677L2082 -675Q2082 -673 2074 -670.5Q2066 -668 2056 -664.5Q2046 -661 2036 -656Q2026 -651 2021 -644Q2005 -621 2002 -589.5Q1999 -558 1999 -532Q1999 -529 1999 -513Q1999 -497 1998.5 -476.5Q1998 -456 1998 -435.5Q1998 -415 1998 -404Q1998 -396 1998 -383Q1998 -370 1998.5 -357Q1999 -344 1999 -334Q1999 -324 1999 -322L2003 -319Q2038 -356 2079.5 -384.5Q2121 -413 2176 -413Q2258 -413 2309.5 -362.5Q2361 -312 2361 -229Q2361 -184 2346 -141.5Q2331 -99 2304 -65Q2277 -31 2238.5 -10.5Q2200 10 2152 10Q2125 10 2098 6Q2071 2 2046 -8Q2028 -15 2007 -24.5Q1986 -34 1966 -34ZM1999 -191Q1999 -144 2003 -110Q2007 -76 2022.5 -53Q2038 -30 2068 -19Q2098 -8 2149 -8Q2220 -8 2261.5 -55Q2303 -102 2303 -170Q2303 -207 2291 -242Q2279 -277 2256.5 -304.5Q2234 -332 2202.5 -349Q2171 -366 2132 -366Q2095 -366 2069.5 -350.5Q2044 -335 2028.5 -310.5Q2013 -286 2006 -254.5Q1999 -223 1999 -191ZM2391 -139Q2391 -178 2409.5 -207Q2428 -236 2457.5 -255Q2487 -274 2522.5 -283.5Q2558 -293 2593 -293Q2631 -293 2658.5 -284.5Q2686 -276 2721 -260L2725 -264L2725 -266Q2725 -272 2717 -287.5Q2709 -303 2706 -307Q2686 -342 2663.5 -364.5Q2641 -387 2599 -387Q2574 -387 2554 -380.5Q2534 -374 2511 -362Q2500 -355 2492.5 -349Q2485 -343 2472 -343L2472 -358Q2472 -358 2481.5 -369.5Q2491 -381 2497 -387Q2498 -388 2504 -394.5Q2510 -401 2515 -401L2645 -401Q2657 -401 2674 -392.5Q2691 -384 2699 -380Q2742 -355 2770 -316Q2798 -277 2815 -232Q2816 -230 2819 -221Q2822 -212 2825.5 -201Q2829 -190 2832.5 -181Q2836 -172 2837 -170Q2837 -168 2839.5 -163Q2842 -158 2844 -156L2894 -18Q2894 -18 2894.5 -16Q2895 -14 2895 -13Q2895 -5 2891 0L2869 3L2862 3Q2857 3 2847.5 1.5Q2838 0 2837 0Q2832 -2 2828 -10.5Q2824 -19 2822 -22Q2808 -56 2792.5 -100Q2777 -144 2754.5 -183Q2732 -222 2699.5 -248.5Q2667 -275 2620 -275Q2552 -275 2511.5 -240.5Q2471 -206 2471 -137Q2471 -88 2501.5 -58Q2532 -28 2573 -11L2641 -11Q2662 -11 2683 -26.5Q2704 -42 2720.5 -60Q2737 -78 2747.5 -93.5Q2758 -109 2759 -109Q2764 -109 2764.5 -105Q2765 -101 2765 -97Q2765 -86 2761.5 -81Q2758 -76 2750 -62Q2726 -20 2682 -6.5Q2638 7 2594 7Q2560 7 2523.5 -1Q2487 -9 2458 -26Q2429 -43 2410 -71Q2391 -99 2391 -139ZM3163 165Q3163 110 3186.5 61.5Q3210 13 3237.5 -34Q3265 -81 3288.5 -129.5Q3312 -178 3312 -234Q3312 -262 3306 -291Q3300 -320 3286 -343.5Q3272 -367 3249 -382Q3226 -397 3193 -397Q3161 -397 3134 -384Q3107 -371 3087 -349Q3067 -327 3055.5 -298Q3044 -269 3044 -238L3044 -90L3055 -50Q3055 -50 3056.5 -48.5Q3058 -47 3059 -47Q3066 -41 3074 -37Q3082 -33 3091 -29L3092 -25Q3092 -21 3088 -17.5Q3084 -14 3080 -14L2932 -14Q2932 -14 2930.5 -15.5Q2929 -17 2929 -18L2928 -19Q2928 -26 2934 -31Q2940 -36 2947.5 -42Q2955 -48 2962 -55Q2969 -62 2972 -72Q2973 -78 2974 -94Q2975 -110 2976 -128Q2977 -146 2978 -162Q2979 -178 2979 -184Q2979 -185 2979 -194Q2979 -203 2979.5 -214.5Q2980 -226 2980 -238Q2980 -250 2980 -257Q2980 -265 2980 -278Q2980 -291 2979.5 -303.5Q2979 -316 2979 -325.5Q2979 -335 2979 -336Q2979 -338 2978 -351Q2977 -364 2976 -368Q2974 -381 2965.5 -388Q2957 -395 2948 -398.5Q2939 -402 2932 -405Q2925 -408 2925 -413L2925 -416Q2925 -422 2929 -423Q2952 -424 2977.5 -425.5Q3003 -427 3028 -427Q3030 -427 3035 -426.5Q3040 -426 3041 -426L3046 -423L3046 -347Q3046 -346 3052 -343L3055 -343Q3093 -380 3130.5 -403.5Q3168 -427 3221 -427Q3225 -427 3227 -426L3261 -426Q3323 -410 3357.5 -367Q3392 -324 3392 -259Q3392 -223 3379 -183.5Q3366 -144 3344 -115L3203 76Q3192 92 3185 116Q3178 140 3178 159Q3178 194 3196 218.5Q3214 243 3251 243Q3278 243 3292.5 226Q3307 209 3307 182L3278 189Q3264 189 3255 182.5Q3246 176 3246 161Q3246 146 3256 136.5Q3266 127 3281 127Q3305 127 3315.5 146Q3326 165 3326 187Q3326 220 3301.5 239Q3277 258 3247 258Q3206 258 3184.5 230.5Q3163 203 3163 165ZM3767 -11Q3766 -11 3764.5 -12.5Q3763 -14 3763 -14L3763 -16Q3763 -22 3771 -24Q3779 -26 3788.5 -27.5Q3798 -29 3806 -33.5Q3814 -38 3814 -50Q3814 -60 3795 -89.5Q3776 -119 3752 -149.5Q3728 -180 3706 -204Q3684 -228 3678 -228Q3669 -228 3648 -216Q3627 -204 3605.5 -189.5Q3584 -175 3567 -162.5Q3550 -150 3550 -148L3550 -72Q3550 -58 3558 -48.5Q3566 -39 3575.5 -33Q3585 -27 3593 -24Q3601 -21 3601 -18Q3601 -13 3597 -10L3488 -10Q3471 -10 3454 -10.5Q3437 -11 3423 -14L3422 -20Q3422 -24 3428 -27Q3434 -30 3442.5 -33Q3451 -36 3459 -40.5Q3467 -45 3470 -54Q3471 -56 3473.5 -64.5Q3476 -73 3477 -76Q3478 -93 3479 -136Q3480 -179 3481 -227.5Q3482 -276 3483 -319Q3484 -362 3484 -379Q3484 -380 3484.5 -388.5Q3485 -397 3485 -407.5Q3485 -418 3485 -428.5Q3485 -439 3485 -445Q3485 -483 3484.5 -508.5Q3484 -534 3481 -571Q3479 -598 3468.5 -613Q3458 -628 3434 -640L3434 -651Q3439 -651 3457.5 -652Q3476 -653 3481 -654Q3499 -656 3517 -664Q3535 -672 3552.5 -680.5Q3570 -689 3587.5 -695.5Q3605 -702 3624 -702L3627 -702Q3630 -702 3633.5 -701Q3637 -700 3637 -696Q3637 -689 3631.5 -685.5Q3626 -682 3619 -680Q3612 -678 3604.5 -676.5Q3597 -675 3593 -672Q3571 -652 3564.5 -627Q3558 -602 3554 -574L3553 -567Q3553 -555 3552.5 -523Q3552 -491 3551.5 -455.5Q3551 -420 3550.5 -388Q3550 -356 3550 -343L3550 -191Q3550 -190 3552.5 -187.5Q3555 -185 3557 -184L3559 -184Q3567 -184 3576 -191Q3585 -198 3593 -202Q3596 -204 3605.5 -209.5Q3615 -215 3626 -221.5Q3637 -228 3647 -233.5Q3657 -239 3662 -242Q3662 -242 3665 -243.5Q3668 -245 3669 -246Q3676 -250 3688 -257.5Q3700 -265 3711 -272.5Q3722 -280 3731 -286Q3740 -292 3741 -293Q3741 -293 3747 -298Q3753 -303 3761.5 -310Q3770 -317 3778.5 -324.5Q3787 -332 3792 -336Q3810 -352 3810 -373Q3810 -392 3791.5 -397Q3773 -402 3759 -405Q3755 -406 3755 -412Q3755 -419 3767 -419L3918 -419Q3923 -419 3926.5 -415.5Q3930 -412 3930 -408Q3930 -404 3921.5 -398.5Q3913 -393 3902.5 -387Q3892 -381 3881.5 -376.5Q3871 -372 3868 -369Q3861 -364 3844.5 -351Q3828 -338 3809.5 -323.5Q3791 -309 3774.5 -296Q3758 -283 3752 -278Q3748 -277 3748 -271Q3748 -265 3752 -260Q3795 -204 3833 -153.5Q3871 -103 3915 -50Q3919 -45 3927.5 -41.5Q3936 -38 3944.5 -34.5Q3953 -31 3959.5 -27Q3966 -23 3966 -16Q3966 -7 3957 -7L3955 -11L3767 -11ZM3996 -207Q3996 -252 4013 -292Q4030 -332 4060 -362Q4090 -392 4129.5 -409Q4169 -426 4214 -426Q4245 -426 4271 -415Q4297 -404 4326 -397L4380 -361Q4388 -356 4388 -344Q4388 -330 4369 -318Q4350 -306 4340 -299Q4294 -263 4245.5 -223.5Q4197 -184 4149 -148Q4145 -144 4140 -143.5Q4135 -143 4129 -143Q4129 -151 4130.5 -154.5Q4132 -158 4138 -162Q4142 -165 4158 -178Q4174 -191 4192.5 -205.5Q4211 -220 4226.5 -233Q4242 -246 4246 -249Q4262 -262 4278.5 -274.5Q4295 -287 4308 -303L4308 -307Q4308 -324 4291 -340.5Q4274 -357 4251.5 -369.5Q4229 -382 4206 -390Q4183 -398 4171 -398Q4121 -398 4086 -361.5Q4051 -325 4051 -276Q4051 -239 4066 -199Q4081 -159 4107.5 -126Q4134 -93 4169 -71.5Q4204 -50 4244 -50Q4272 -50 4297 -60Q4322 -70 4344 -86Q4345 -87 4355 -95.5Q4365 -104 4369 -108Q4380 -118 4388.5 -130Q4397 -142 4409 -151L4411 -151Q4417 -151 4417 -144Q4417 -135 4407.5 -122Q4398 -109 4385 -96.5Q4372 -84 4358.5 -73.5Q4345 -63 4337 -57Q4307 -36 4272.5 -19.5Q4238 -3 4200 -3Q4157 -3 4119.5 -18.5Q4082 -34 4054.5 -61.5Q4027 -89 4011.5 -126.5Q3996 -164 3996 -207ZM4685 165Q4685 110 4708.5 61.5Q4732 13 4759.5 -34Q4787 -81 4810.5 -129.5Q4834 -178 4834 -234Q4834 -262 4828 -291Q4822 -320 4808 -343.5Q4794 -367 4771 -382Q4748 -397 4715 -397Q4683 -397 4656 -384Q4629 -371 4609 -349Q4589 -327 4577.5 -298Q4566 -269 4566 -238L4566 -90L4577 -50Q4577 -50 4578.5 -48.5Q4580 -47 4581 -47Q4588 -41 4596 -37Q4604 -33 4613 -29L4614 -25Q4614 -21 4610 -17.5Q4606 -14 4602 -14L4454 -14Q4454 -14 4452.5 -15.5Q4451 -17 4451 -18L4450 -19Q4450 -26 4456 -31Q4462 -36 4469.5 -42Q4477 -48 4484 -55Q4491 -62 4494 -72Q4495 -78 4496 -94Q4497 -110 4498 -128Q4499 -146 4500 -162Q4501 -178 4501 -184Q4501 -185 4501 -194Q4501 -203 4501.5 -214.5Q4502 -226 4502 -238Q4502 -250 4502 -257Q4502 -265 4502 -278Q4502 -291 4501.5 -303.5Q4501 -316 4501 -325.5Q4501 -335 4501 -336Q4501 -338 4500 -351Q4499 -364 4498 -368Q4496 -381 4487.5 -388Q4479 -395 4470 -398.5Q4461 -402 4454 -405Q4447 -408 4447 -413L4447 -416Q4447 -422 4451 -423Q4474 -424 4499.5 -425.5Q4525 -427 4550 -427Q4552 -427 4557 -426.5Q4562 -426 4563 -426L4568 -423L4568 -347Q4568 -346 4574 -343L4577 -343Q4615 -380 4652.5 -403.5Q4690 -427 4743 -427Q4747 -427 4749 -426L4783 -426Q4845 -410 4879.5 -367Q4914 -324 4914 -259Q4914 -223 4901 -183.5Q4888 -144 4866 -115L4725 76Q4714 92 4707 116Q4700 140 4700 159Q4700 194 4718 218.5Q4736 243 4773 243Q4800 243 4814.5 226Q4829 209 4829 182L4800 189Q4786 189 4777 182.5Q4768 176 4768 161Q4768 146 4778 136.5Q4788 127 4803 127Q4827 127 4837.5 146Q4848 165 4848 187Q4848 220 4823.5 239Q4799 258 4769 258Q4728 258 4706.5 230.5Q4685 203 4685 165Z" style="fill:#f5eee0"></path><use href="#rbPuff" x="913" y="-731" width="300" height="300"></use></symbol></defs><use href="#rbMark" x="0" y="0" width="240" height="340"></use></svg>